  0
SECTION
  2
HEADER
  9
$ACADVER
  1
AC1027
  9
$ACADMAINTVER
 70
     8
  9
$DWGCODEPAGE
  3
ANSI_1252
  9
$REQUIREDVERSIONS
160
                 0
  9
$INSBASE
 10
0.0
 20
0.0
 30
0.0
  9
$EXTMIN
 10
1.000000000000000E+20
 20
1.000000000000000E+20
 30
1.000000000000000E+20
  9
$EXTMAX
 10
-1.000000000000000E+20
 20
-1.000000000000000E+20
 30
-1.000000000000000E+20
  9
$LIMMIN
 10
0.0
 20
0.0
  9
$LIMMAX
 10
12.0
 20
9.0
  9
$ORTHOMODE
 70
     0
  9
$REGENMODE
 70
     1
  9
$FILLMODE
 70
     1
  9
$QTEXTMODE
 70
     0
  9
$MIRRTEXT
 70
     1
  9
$LTSCALE
 40
1.0
  9
$ATTMODE
 70
     1
  9
$TEXTSIZE
 40
2.5
  9
$TRACEWID
 40
0.05
  9
$TEXTSTYLE
  7
Standard
  9
$CLAYER
  8
0
  9
$CELTYPE
  6
ByLayer
  9
$CECOLOR
 62
   178
  9
$CELTSCALE
 40
1.0
  9
$DISPSILH
 70
     0
  9
$DIMSCALE
 40
1.0
  9
$DIMASZ
 40
0.18
  9
$DIMEXO
 40
0.0625
  9
$DIMDLI
 40
0.38
  9
$DIMRND
 40
0.0
  9
$DIMDLE
 40
0.0
  9
$DIMEXE
 40
0.18
  9
$DIMTP
 40
0.0
  9
$DIMTM
 40
0.0
  9
$DIMTXT
 40
0.18
  9
$DIMCEN
 40
0.09
  9
$DIMTSZ
 40
0.0
  9
$DIMTOL
 70
     0
  9
$DIMLIM
 70
     0
  9
$DIMTIH
 70
     1
  9
$DIMTOH
 70
     1
  9
$DIMSE1
 70
     0
  9
$DIMSE2
 70
     0
  9
$DIMTAD
 70
     0
  9
$DIMZIN
 70
     0
  9
$DIMBLK
  1

  9
$DIMASO
 70
     1
  9
$DIMSHO
 70
     1
  9
$DIMPOST
  1

  9
$DIMAPOST
  1

  9
$DIMALT
 70
     0
  9
$DIMALTD
 70
     2
  9
$DIMALTF
 40
25.4
  9
$DIMLFAC
 40
1.0
  9
$DIMTOFL
 70
     0
  9
$DIMTVP
 40
0.0
  9
$DIMTIX
 70
     0
  9
$DIMSOXD
 70
     0
  9
$DIMSAH
 70
     0
  9
$DIMBLK1
  1

  9
$DIMBLK2
  1

  9
$DIMSTYLE
  2
Standard
  9
$DIMCLRD
 70
   178
  9
$DIMCLRE
 70
   178
  9
$DIMCLRT
 70
   178
  9
$DIMTFAC
 40
1.0
  9
$DIMGAP
 40
0.09
  9
$DIMJUST
 70
     0
  9
$DIMSD1
 70
     0
  9
$DIMSD2
 70
     0
  9
$DIMTOLJ
 70
     1
  9
$DIMTZIN
 70
     0
  9
$DIMALTZ
 70
     0
  9
$DIMALTTZ
 70
     0
  9
$DIMUPT
 70
     0
  9
$DIMDEC
 70
     4
  9
$DIMTDEC
 70
     4
  9
$DIMALTU
 70
     2
  9
$DIMALTTD
 70
     2
  9
$DIMTXSTY
  7
Standard
  9
$DIMAUNIT
 70
     0
  9
$DIMADEC
 70
     0
  9
$DIMALTRND
 40
0.0
  9
$DIMAZIN
 70
     0
  9
$DIMDSEP
 70
    46
  9
$DIMATFIT
 70
     3
  9
$DIMFRAC
 70
     0
  9
$DIMLDRBLK
  1

  9
$DIMLUNIT
 70
     2
  9
$DIMLWD
 70
    -2
  9
$DIMLWE
 70
    -2
  9
$DIMTMOVE
 70
     0
  9
$DIMFXL
 40
1.0
  9
$DIMFXLON
 70
     0
  9
$DIMJOGANG
 40
0.7853981633974483
  9
$DIMTFILL
 70
     0
  9
$DIMTFILLCLR
 70
     0
  9
$DIMARCSYM
 70
     0
  9
$DIMLTYPE
  6

  9
$DIMLTEX1
  6

  9
$DIMLTEX2
  6

  9
$DIMTXTDIRECTION
 70
     0
  9
$LUNITS
 70
     2
  9
$LUPREC
 70
     4
  9
$SKETCHINC
 40
0.1
  9
$FILLETRAD
 40
0.5
  9
$AUNITS
 70
     0
  9
$AUPREC
 70
     0
  9
$MENU
  1
.
  9
$ELEVATION
 40
0.0
  9
$PELEVATION
 40
0.0
  9
$THICKNESS
 40
0.0
  9
$LIMCHECK
 70
     0
  9
$CHAMFERA
 40
0.0
  9
$CHAMFERB
 40
0.0
  9
$CHAMFERC
 40
0.0
  9
$CHAMFERD
 40
0.0
  9
$SKPOLY
 70
     0
  9
$TDCREATE
 40
2457524.613796296
  9
$TDUCREATE
 40
2457524.613796296
  9
$TDUPDATE
 40
2457524.613796296
  9
$TDUUPDATE
 40
2457524.613796296
  9
$TDINDWG
 40
0.0000000116
  9
$TDUSRTIMER
 40
0.0000000116
  9
$USRTIMER
 70
     1
  9
$ANGBASE
 50
0.0
  9
$ANGDIR
 70
     0
  9
$PDMODE
 70
     0
  9
$PDSIZE
 40
0.0
  9
$PLINEWID
 40
0.0
  9
$SPLFRAME
 70
     0
  9
$SPLINETYPE
 70
     6
  9
$SPLINESEGS
 70
     8
  9
$HANDSEED
  5
3CF
  9
$SURFTAB1
 70
     6
  9
$SURFTAB2
 70
     6
  9
$SURFTYPE
 70
     6
  9
$SURFU
 70
     6
  9
$SURFV
 70
     6
  9
$UCSBASE
  2

  9
$UCSNAME
  2

  9
$UCSORG
 10
0.0
 20
0.0
 30
0.0
  9
$UCSXDIR
 10
1.0
 20
0.0
 30
0.0
  9
$UCSYDIR
 10
0.0
 20
1.0
 30
0.0
  9
$UCSORTHOREF
  2

  9
$UCSORTHOVIEW
 70
     0
  9
$UCSORGTOP
 10
0.0
 20
0.0
 30
0.0
  9
$UCSORGBOTTOM
 10
0.0
 20
0.0
 30
0.0
  9
$UCSORGLEFT
 10
0.0
 20
0.0
 30
0.0
  9
$UCSORGRIGHT
 10
0.0
 20
0.0
 30
0.0
  9
$UCSORGFRONT
 10
0.0
 20
0.0
 30
0.0
  9
$UCSORGBACK
 10
0.0
 20
0.0
 30
0.0
  9
$PUCSBASE
  2

  9
$PUCSNAME
  2

  9
$PUCSORG
 10
0.0
 20
0.0
 30
0.0
  9
$PUCSXDIR
 10
1.0
 20
0.0
 30
0.0
  9
$PUCSYDIR
 10
0.0
 20
1.0
 30
0.0
  9
$PUCSORTHOREF
  2

  9
$PUCSORTHOVIEW
 70
     0
  9
$PUCSORGTOP
 10
0.0
 20
0.0
 30
0.0
  9
$PUCSORGBOTTOM
 10
0.0
 20
0.0
 30
0.0
  9
$PUCSORGLEFT
 10
0.0
 20
0.0
 30
0.0
  9
$PUCSORGRIGHT
 10
0.0
 20
0.0
 30
0.0
  9
$PUCSORGFRONT
 10
0.0
 20
0.0
 30
0.0
  9
$PUCSORGBACK
 10
0.0
 20
0.0
 30
0.0
  9
$USERI1
 70
     0
  9
$USERI2
 70
     0
  9
$USERI3
 70
     0
  9
$USERI4
 70
     0
  9
$USERI5
 70
     0
  9
$USERR1
 40
0.0
  9
$USERR2
 40
0.0
  9
$USERR3
 40
0.0
  9
$USERR4
 40
0.0
  9
$USERR5
 40
0.0
  9
$WORLDVIEW
 70
     1
  9
$SHADEDGE
 70
     3
  9
$SHADEDIF
 70
    70
  9
$TILEMODE
 70
     1
  9
$MAXACTVP
 70
     2
  9
$PINSBASE
 10
0.0
 20
0.0
 30
0.0
  9
$PLIMCHECK
 70
     0
  9
$PEXTMIN
 10
1.000000000000000E+20
 20
1.000000000000000E+20
 30
1.000000000000000E+20
  9
$PEXTMAX
 10
-1.000000000000000E+20
 20
-1.000000000000000E+20
 30
-1.000000000000000E+20
  9
$PLIMMIN
 10
0.0
 20
0.0
  9
$PLIMMAX
 10
12.0
 20
9.0
  9
$UNITMODE
 70
     0
  9
$VISRETAIN
 70
     1
  9
$PLINEGEN
 70
     0
  9
$PSLTSCALE
 70
     1
  9
$TREEDEPTH
 70
  3020
  9
$CMLSTYLE
  2
Standard
  9
$CMLJUST
 70
     0
  9
$CMLSCALE
 40
1.0
  9
$PROXYGRAPHICS
 70
     1
  9
$MEASUREMENT
 70
     1
  9
$CELWEIGHT
370
    -1
  9
$ENDCAPS
280
     0
  9
$JOINSTYLE
280
     0
  9
$LWDISPLAY
290
     0
  9
$INSUNITS
 70
     4
  9
$HYPERLINKBASE
  1

  9
$STYLESHEET
  1

  9
$XEDIT
290
     1
  9
$CEPSNTYPE
380
     0
  9
$PSTYLEMODE
290
     1
  9
$FINGERPRINTGUID
  2
{34F48FEE-284F-4867-B4BB-07B8EC687328}
  9
$VERSIONGUID
  2
{FAEB1C32-E019-11D5-929B-00C0DF256EC4}
  9
$EXTNAMES
290
     1
  9
$PSVPSCALE
 40
0.0
  9
$OLESTARTUP
290
     0
  9
$SORTENTS
280
   127
  9
$INDEXCTL
280
     0
  9
$HIDETEXT
280
     1
  9
$XCLIPFRAME
280
     2
  9
$HALOGAP
280
     0
  9
$OBSCOLOR
 70
   257
  9
$OBSLTYPE
280
     0
  9
$INTERSECTIONDISPLAY
280
     0
  9
$INTERSECTIONCOLOR
 70
   257
  9
$DIMASSOC
280
     2
  9
$PROJECTNAME
  1

  9
$CAMERADISPLAY
290
     0
  9
$LENSLENGTH
 40
50.0
  9
$CAMERAHEIGHT
 40
0.0
  9
$STEPSPERSEC
 40
2.0
  9
$STEPSIZE
 40
6.0
  9
$3DDWFPREC
 40
2.0
  9
$PSOLWIDTH
 40
0.25
  9
$PSOLHEIGHT
 40
4.0
  9
$LOFTANG1
 40
1.570796326794897
  9
$LOFTANG2
 40
1.570796326794897
  9
$LOFTMAG1
 40
0.0
  9
$LOFTMAG2
 40
0.0
  9
$LOFTPARAM
 70
     7
  9
$LOFTNORMALS
280
     1
  9
$LATITUDE
 40
37.795
  9
$LONGITUDE
 40
-122.394
  9
$NORTHDIRECTION
 40
0.0
  9
$TIMEZONE
 70
 -8000
  9
$LIGHTGLYPHDISPLAY
280
     1
  9
$TILEMODELIGHTSYNCH
280
     1
  9
$CMATERIAL
347
35A
  9
$SOLIDHIST
280
     0
  9
$SHOWHIST
280
     1
  9
$DWFFRAME
280
     2
  9
$DGNFRAME
280
     2
  9
$REALWORLDSCALE
290
     1
  9
$INTERFERECOLOR
 62
   256
  9
$CSHADOW
280
     0
  9
$SHADOWPLANELOCATION
 40
0.0
  0
ENDSEC
  0
SECTION
  2
CLASSES
  0
CLASS
  1
ACDBDICTIONARYWDFLT
  2
AcDbDictionaryWithDefault
  3
ObjectDBX Classes
 90
        0
 91
        4
280
     0
281
     0
  0
CLASS
  1
VISUALSTYLE
  2
AcDbVisualStyle
  3
ObjectDBX Classes
 90
     4095
 91
        4
280
     0
281
     0
  0
CLASS
  1
MATERIAL
  2
AcDbMaterial
  3
ObjectDBX Classes
 90
     1153
 91
        4
280
     0
281
     0
  0
CLASS
  1
SCALE
  2
AcDbScale
  3
ObjectDBX Classes
 90
     1153
 91
        4
280
     0
281
     0
  0
CLASS
  1
TABLESTYLE
  2
AcDbTableStyle
  3
ObjectDBX Classes
 90
     4095
 91
        4
280
     0
281
     0
  0
CLASS
  1
MLEADERSTYLE
  2
AcDbMLeaderStyle
  3
ACDB_MLEADERSTYLE_CLASS
 90
     4095
 91
        4
280
     0
281
     0
  0
CLASS
  1
SUN
  2
AcDbSun
  3
SCENEOE
 90
     1153
 91
        4
280
     0
281
     0
  0
CLASS
  1
DICTIONARYVAR
  2
AcDbDictionaryVar
  3
ObjectDBX Classes
 90
        0
 91
        4
280
     0
281
     0
  0
CLASS
  1
CELLSTYLEMAP
  2
AcDbCellStyleMap
  3
ObjectDBX Classes
 90
     1152
 91
        4
280
     0
281
     0
  0
ENDSEC
  0
SECTION
  2
TABLES
  0
TABLE
  2
VPORT
  5
31F
330
0
100
AcDbSymbolTable
 70
     1
  0
VPORT
  5
33F
330
31F
100
AcDbSymbolTableRecord
100
AcDbViewportTableRecord
  2
*Active
 70
     0
 10
0.0
 20
0.0
 11
1.0
 21
1.0
 12
10.42990654205607
 22
4.5
 13
0.0
 23
0.0
 14
0.5
 24
0.5
 15
0.5
 25
0.5
 16
0.0
 26
0.0
 36
1.0
 17
0.0
 27
0.0
 37
0.0
 40
9.0
 41
1.972972972850329
 42
50.0
 43
0.0
 44
0.0
 50
0.0
 51
0.0
 71
     0
 72
   100
 73
     1
 74
     3
 75
     0
 76
     0
 77
     0
 78
     0
281
     0
 65
     1
110
0.0
120
0.0
130
0.0
111
1.0
121
0.0
131
0.0
112
0.0
122
1.0
132
0.0
 79
     0
146
0.0
 60
     3
 61
     5
292
     1
282
     1
141
0.0
142
0.0
 63
   250
361
383
  0
ENDTAB
  0
TABLE
  2
LTYPE
  5
31C
330
0
100
AcDbSymbolTable
 70
    19
  0
LTYPE
  5
32A
330
31C
100
AcDbSymbolTableRecord
100
AcDbLinetypeTableRecord
  2
ByBlock
 70
     0
  3

 72
    65
 73
     0
 40
0.0
  0
LTYPE
  5
32B
330
31C
100
AcDbSymbolTableRecord
100
AcDbLinetypeTableRecord
  2
ByLayer
 70
     0
  3

 72
    65
 73
     0
 40
0.0
  0
LTYPE
  5
32C
330
31C
100
AcDbSymbolTableRecord
100
AcDbLinetypeTableRecord
  2
Continuous
 70
     0
  3
Solid line
 72
    65
 73
     0
 40
0.0
  0
LTYPE
  5
3B3
330
31C
100
AcDbSymbolTableRecord
100
AcDbLinetypeTableRecord
  2
BORDER
 70
     0
  3

 72
    65
 73
     6
 40
42.00000000000001
 49
12.0
 74
     0
 49
-6.0
 74
     0
 49
12.0
 74
     0
 49
-5.95
 74
     0
 49
0.1
 74
     0
 49
-5.95
 74
     0
  0
LTYPE
  5
3B4
330
31C
100
AcDbSymbolTableRecord
100
AcDbLinetypeTableRecord
  2
BORDER2
 70
     0
  3

 72
    65
 73
     6
 40
21.0
 49
6.0
 74
     0
 49
-3.0
 74
     0
 49
6.0
 74
     0
 49
-2.95
 74
     0
 49
0.1
 74
     0
 49
-2.95
 74
     0
  0
LTYPE
  5
3B5
330
31C
100
AcDbSymbolTableRecord
100
AcDbLinetypeTableRecord
  2
BORDERX2
 70
     0
  3

 72
    65
 73
     6
 40
84.0
 49
24.0
 74
     0
 49
-12.0
 74
     0
 49
24.0
 74
     0
 49
-11.95
 74
     0
 49
0.1
 74
     0
 49
-11.95
 74
     0
  0
LTYPE
  5
3B6
330
31C
100
AcDbSymbolTableRecord
100
AcDbLinetypeTableRecord
  2
CENTER
 70
     0
  3

 72
    65
 73
     4
 40
50.0
 49
32.0
 74
     0
 49
-6.0
 74
     0
 49
6.0
 74
     0
 49
-6.0
 74
     0
  0
LTYPE
  5
3B7
330
31C
100
AcDbSymbolTableRecord
100
AcDbLinetypeTableRecord
  2
CENTER2
 70
     0
  3

 72
    65
 73
     4
 40
25.0
 49
16.0
 74
     0
 49
-3.0
 74
     0
 49
3.0
 74
     0
 49
-3.0
 74
     0
  0
LTYPE
  5
3B8
330
31C
100
AcDbSymbolTableRecord
100
AcDbLinetypeTableRecord
  2
CENTERX2
 70
     0
  3

 72
    65
 73
     4
 40
100.0
 49
64.0
 74
     0
 49
-12.0
 74
     0
 49
12.0
 74
     0
 49
-12.0
 74
     0
  0
LTYPE
  5
3B9
330
31C
100
AcDbSymbolTableRecord
100
AcDbLinetypeTableRecord
  2
DASHDOT
 70
     0
  3

 72
    65
 73
     4
 40
24.0
 49
12.0
 74
     0
 49
-5.95
 74
     0
 49
0.1
 74
     0
 49
-5.95
 74
     0
  0
LTYPE
  5
3BA
330
31C
100
AcDbSymbolTableRecord
100
AcDbLinetypeTableRecord
  2
DASHDOT2
 70
     0
  3

 72
    65
 73
     4
 40
12.0
 49
6.0
 74
     0
 49
-2.95
 74
     0
 49
0.1
 74
     0
 49
-2.95
 74
     0
  0
LTYPE
  5
3BB
330
31C
100
AcDbSymbolTableRecord
100
AcDbLinetypeTableRecord
  2
DASHDOTX2
 70
     0
  3

 72
    65
 73
     4
 40
48.0
 49
24.0
 74
     0
 49
-11.95
 74
     0
 49
0.1
 74
     0
 49
-11.95
 74
     0
  0
LTYPE
  5
3BC
330
31C
100
AcDbSymbolTableRecord
100
AcDbLinetypeTableRecord
  2
DASHED
 70
     0
  3

 72
    65
 73
     2
 40
18.0
 49
12.0
 74
     0
 49
-6.0
 74
     0
  0
LTYPE
  5
3BD
330
31C
100
AcDbSymbolTableRecord
100
AcDbLinetypeTableRecord
  2
DASHED2
 70
     0
  3

 72
    65
 73
     2
 40
9.0
 49
6.0
 74
     0
 49
-3.0
 74
     0
  0
LTYPE
  5
3BE
330
31C
100
AcDbSymbolTableRecord
100
AcDbLinetypeTableRecord
  2
DASHEDX2
 70
     0
  3

 72
    65
 73
     2
 40
36.0
 49
24.0
 74
     0
 49
-12.0
 74
     0
  0
LTYPE
  5
3BF
330
31C
100
AcDbSymbolTableRecord
100
AcDbLinetypeTableRecord
  2
DIVIDE
 70
     0
  3

 72
    65
 73
     6
 40
29.99999999999999
 49
12.0
 74
     0
 49
-5.9
 74
     0
 49
0.15
 74
     0
 49
-5.9
 74
     0
 49
0.15
 74
     0
 49
-5.9
 74
     0
  0
LTYPE
  5
3C0
330
31C
100
AcDbSymbolTableRecord
100
AcDbLinetypeTableRecord
  2
DIVIDE2
 70
     0
  3

 72
    65
 73
     6
 40
15.0
 49
6.0
 74
     0
 49
-2.9
 74
     0
 49
0.15
 74
     0
 49
-2.9
 74
     0
 49
0.15
 74
     0
 49
-2.9
 74
     0
  0
LTYPE
  5
3C1
330
31C
100
AcDbSymbolTableRecord
100
AcDbLinetypeTableRecord
  2
DIVIDEX2
 70
     0
  3

 72
    65
 73
     6
 40
59.99999999999999
 49
24.0
 74
     0
 49
-11.9
 74
     0
 49
0.15
 74
     0
 49
-11.9
 74
     0
 49
0.15
 74
     0
 49
-11.9
 74
     0
  0
LTYPE
  5
3C2
330
31C
100
AcDbSymbolTableRecord
100
AcDbLinetypeTableRecord
  2
DOT
 70
     0
  3

 72
    65
 73
     2
 40
6.3
 49
0.1
 74
     0
 49
-6.2
 74
     0
  0
LTYPE
  5
3C3
330
31C
100
AcDbSymbolTableRecord
100
AcDbLinetypeTableRecord
  2
DOT2
 70
     0
  3

 72
    65
 73
     2
 40
3.2
 49
0.1
 74
     0
 49
-3.1
 74
     0
  0
LTYPE
  5
3C4
330
31C
100
AcDbSymbolTableRecord
100
AcDbLinetypeTableRecord
  2
DOTX2
 70
     0
  3

 72
    65
 73
     2
 40
12.5
 49
0.1
 74
     0
 49
-12.4
 74
     0
  0
ENDTAB
  0
TABLE
  2
LAYER
  5
319
330
0
100
AcDbSymbolTable
 70
     2
  0
LAYER
  5
327
330
319
100
AcDbSymbolTableRecord
100
AcDbLayerTableRecord
  2
0
 70
     0
 62
     7
420
 16777215
  6
Continuous
370
    -3
390
326
347
35C
348
0
  0
LAYER
  5
3C5
330
319
100
AcDbSymbolTableRecord
100
AcDbLayerTableRecord
  2
Cuts
 70
     0
 62
     5
420
      255
  6
Continuous
370
    25
390
326
347
35C
348
0
  0
ENDTAB
  0
TABLE
  2
STYLE
  5
31A
330
0
100
AcDbSymbolTable
 70
     2
  0
STYLE
  5
328
330
31A
100
AcDbSymbolTableRecord
100
AcDbTextStyleTableRecord
  2
Standard
 70
     0
 40
0.0
 41
1.0
 50
0.0
 71
     0
 42
2.5
  3
txt
  4

  0
STYLE
  5
3B1
330
31A
100
AcDbSymbolTableRecord
100
AcDbTextStyleTableRecord
  2
QCADDimTextStyle
 70
     0
 40
0.0
 41
1.0
 50
0.0
 71
     0
 42
2.5
  3

  4

  0
ENDTAB
  0
TABLE
  2
VIEW
  5
31D
330
0
100
AcDbSymbolTable
 70
     0
  0
ENDTAB
  0
TABLE
  2
UCS
  5
31E
330
0
100
AcDbSymbolTable
 70
     0
  0
ENDTAB
  0
TABLE
  2
APPID
  5
320
330
0
100
AcDbSymbolTable
 70
     2
  0
APPID
  5
329
330
320
100
AcDbSymbolTableRecord
100
AcDbRegAppTableRecord
  2
ACAD
 70
     0
  0
APPID
  5
384
330
320
100
AcDbSymbolTableRecord
100
AcDbRegAppTableRecord
  2
QCAD
 70
     0
  0
ENDTAB
  0
TABLE
  2
DIMSTYLE
  5
321
330
0
100
AcDbSymbolTable
 70
     2
100
AcDbDimStyleTable
  0
DIMSTYLE
105
33D
330
321
100
AcDbSymbolTableRecord
100
AcDbDimStyleTableRecord
  2
Standard
 70
     0
178
     0
340
328
  0
DIMSTYLE
105
3B2
330
321
100
AcDbSymbolTableRecord
100
AcDbDimStyleTableRecord
  2
QCADDimStyle
 70
     0
 73
     0
 77
     1
178
     0
340
3B1
  0
ENDTAB
  0
TABLE
  2
BLOCK_RECORD
  5
318
330
0
100
AcDbSymbolTable
 70
     1
  0
BLOCK_RECORD
  5
335
330
318
100
AcDbSymbolTableRecord
100
AcDbBlockTableRecord
  2
*Model_Space
340
338
 70
     0
280
     1
281
     0
  0
BLOCK_RECORD
  5
331
330
318
100
AcDbSymbolTableRecord
100
AcDbBlockTableRecord
  2
*Paper_Space
340
334
 70
     0
280
     1
281
     0
  0
BLOCK_RECORD
  5
339
330
318
100
AcDbSymbolTableRecord
100
AcDbBlockTableRecord
  2
*Paper_Space0
340
33C
 70
     0
280
     1
281
     0
  0
ENDTAB
  0
ENDSEC
  0
SECTION
  2
BLOCKS
  0
BLOCK
  5
336
330
335
100
AcDbEntity
  8
0
100
AcDbBlockBegin
  2
*Model_Space
 70
     0
 10
0.0
 20
0.0
 30
0.0
  3
*Model_Space
  1

  0
ENDBLK
  5
337
330
335
100
AcDbEntity
  8
0
100
AcDbBlockEnd
  0
BLOCK
  5
332
330
331
100
AcDbEntity
 67
     1
  8
0
100
AcDbBlockBegin
  2
*Paper_Space
 70
     0
 10
0.0
 20
0.0
 30
0.0
  3
*Paper_Space
  1

  0
ENDBLK
  5
333
330
331
100
AcDbEntity
 67
     1
  8
0
100
AcDbBlockEnd
  0
BLOCK
  5
33A
330
339
100
AcDbEntity
  8
0
100
AcDbBlockBegin
  2
*Paper_Space0
 70
     0
 10
0.0
 20
0.0
 30
0.0
  3
*Paper_Space0
  1

  0
ENDBLK
  5
33B
330
339
100
AcDbEntity
  8
0
100
AcDbBlockEnd
  0
ENDSEC
  0
SECTION
  2
ENTITIES
  0
LINE
  5
100
330
335
100
AcDbEntity
  8
Cuts
100
AcDbLine
 10
318.27046656
 20
-110.99800044
 30
0.0
 11
278.271111
 21
-110.99800044
 31
0.0
  0
LINE
  5
101
330
335
100
AcDbEntity
  8
Cuts
100
AcDbLine
 10
278.271111
 20
-110.99800044
 30
0.0
 11
278.271111
 21
-64.053156
 31
0.0
  0
LINE
  5
102
330
335
100
AcDbEntity
  8
Cuts
100
AcDbLine
 10
318.27046656
 20
-64.053156
 30
0.0
 11
318.27046656
 21
-110.99800044
 31
0.0
  0
LINE
  5
103
330
335
100
AcDbEntity
  8
Cuts
100
AcDbLine
 10
278.271111
 20
-64.053156
 30
0.0
 11
318.27046656
 21
-64.053156
 31
0.0
  0
LINE
  5
104
330
335
100
AcDbEntity
  8
0
 62
     7
420
 16777215
100
AcDbLine
 10
294.7286288399999
 20
-94.55376951
 30
0.0
 11
293.4789488399999
 21
-94.55376951
 31
0.0
  0
LINE
  5
105
330
335
100
AcDbEntity
  8
0
 62
     7
420
 16777215
100
AcDbLine
 10
293.4789488399999
 20
-94.55376951
 30
0.0
 11
293.4789488399999
 21
-93.55300951000001
 31
0.0
  0
LINE
  5
106
330
335
100
AcDbEntity
  8
0
 62
     7
420
 16777215
100
AcDbLine
 10
293.4789488399999
 20
-93.55300951000001
 30
0.0
 11
294.7286288399999
 21
-93.55300951000001
 31
0.0
  0
LINE
  5
107
330
335
100
AcDbEntity
  8
0
 62
     7
420
 16777215
100
AcDbLine
 10
294.7286288399999
 20
-93.55300951000001
 30
0.0
 11
294.7286288399999
 21
-94.55376951
 31
0.0
  0
LINE
  5
108
330
335
100
AcDbEntity
  8
0
 62
     7
420
 16777215
100
AcDbLine
 10
294.7286288399999
 20
-92.33268062
 30
0.0
 11
293.4789488399999
 21
-92.33268062
 31
0.0
  0
LINE
  5
109
330
335
100
AcDbEntity
  8
0
 62
     7
420
 16777215
100
AcDbLine
 10
293.4789488399999
 20
-92.33268062
 30
0.0
 11
293.4789488399999
 21
-91.33192062
 31
0.0
  0
LINE
  5
10A
330
335
100
AcDbEntity
  8
0
 62
     7
420
 16777215
100
AcDbLine
 10
293.4789488399999
 20
-91.33192062
 30
0.0
 11
294.7286288399999
 21
-91.33192062
 31
0.0
  0
LINE
  5
10B
330
335
100
AcDbEntity
  8
0
 62
     7
420
 16777215
100
AcDbLine
 10
294.7286288399999
 20
-91.33192062
 30
0.0
 11
294.7286288399999
 21
-92.33268062
 31
0.0
  0
LINE
  5
10C
330
335
100
AcDbEntity
  8
0
 62
     7
420
 16777215
100
AcDbLine
 10
299.17362884
 20
-94.55376951
 30
0.0
 11
297.92394884
 21
-94.55376951
 31
0.0
  0
LINE
  5
10D
330
335
100
AcDbEntity
  8
0
 62
     7
420
 16777215
100
AcDbLine
 10
297.92394884
 20
-94.55376951
 30
0.0
 11
297.92394884
 21
-93.55300951000001
 31
0.0
  0
LINE
  5
10E
330
335
100
AcDbEntity
  8
0
 62
     7
420
 16777215
100
AcDbLine
 10
297.92394884
 20
-93.55300951000001
 30
0.0
 11
299.17362884
 21
-93.55300951000001
 31
0.0
  0
LINE
  5
10F
330
335
100
AcDbEntity
  8
0
 62
     7
420
 16777215
100
AcDbLine
 10
299.17362884
 20
-93.55300951000001
 30
0.0
 11
299.17362884
 21
-94.55376951
 31
0.0
  0
LINE
  5
110
330
335
100
AcDbEntity
  8
0
 62
     7
420
 16777215
100
AcDbLine
 10
299.17362884
 20
-92.33268062
 30
0.0
 11
297.92394884
 21
-92.33268062
 31
0.0
  0
LINE
  5
111
330
335
100
AcDbEntity
  8
0
 62
     7
420
 16777215
100
AcDbLine
 10
297.92394884
 20
-92.33268062
 30
0.0
 11
297.92394884
 21
-91.33192062
 31
0.0
  0
LINE
  5
112
330
335
100
AcDbEntity
  8
0
 62
     7
420
 16777215
100
AcDbLine
 10
297.92394884
 20
-91.33192062
 30
0.0
 11
299.17362884
 21
-91.33192062
 31
0.0
  0
LINE
  5
113
330
335
100
AcDbEntity
  8
0
 62
     7
420
 16777215
100
AcDbLine
 10
299.17362884
 20
-91.33192062
 30
0.0
 11
299.17362884
 21
-92.33268062
 31
0.0
  0
LINE
  5
114
330
335
100
AcDbEntity
  8
0
 62
     7
420
 16777215
100
AcDbLine
 10
303.61862884
 20
-94.55376951
 30
0.0
 11
302.36894884
 21
-94.55376951
 31
0.0
  0
LINE
  5
115
330
335
100
AcDbEntity
  8
0
 62
     7
420
 16777215
100
AcDbLine
 10
302.36894884
 20
-94.55376951
 30
0.0
 11
302.36894884
 21
-93.55300951000001
 31
0.0
  0
LINE
  5
116
330
335
100
AcDbEntity
  8
0
 62
     7
420
 16777215
100
AcDbLine
 10
302.36894884
 20
-93.55300951000001
 30
0.0
 11
303.61862884
 21
-93.55300951000001
 31
0.0
  0
LINE
  5
117
330
335
100
AcDbEntity
  8
0
 62
     7
420
 16777215
100
AcDbLine
 10
303.61862884
 20
-93.55300951000001
 30
0.0
 11
303.61862884
 21
-94.55376951
 31
0.0
  0
LINE
  5
118
330
335
100
AcDbEntity
  8
0
 62
     7
420
 16777215
100
AcDbLine
 10
303.61862884
 20
-92.33268062
 30
0.0
 11
302.36894884
 21
-92.33268062
 31
0.0
  0
LINE
  5
119
330
335
100
AcDbEntity
  8
0
 62
     7
420
 16777215
100
AcDbLine
 10
302.36894884
 20
-92.33268062
 30
0.0
 11
302.36894884
 21
-91.33192062
 31
0.0
  0
LINE
  5
11A
330
335
100
AcDbEntity
  8
0
 62
     7
420
 16777215
100
AcDbLine
 10
302.36894884
 20
-91.33192062
 30
0.0
 11
303.61862884
 21
-91.33192062
 31
0.0
  0
LINE
  5
11B
330
335
100
AcDbEntity
  8
0
 62
     7
420
 16777215
100
AcDbLine
 10
303.61862884
 20
-91.33192062
 30
0.0
 11
303.61862884
 21
-92.33268062
 31
0.0
  0
LINE
  5
11C
330
335
100
AcDbEntity
  8
0
 62
     7
420
 16777215
100
AcDbLine
 10
306.9516733999999
 20
-84.55463606
 30
0.0
 11
305.7019934
 21
-84.55463606
 31
0.0
  0
LINE
  5
11D
330
335
100
AcDbEntity
  8
0
 62
     7
420
 16777215
100
AcDbLine
 10
305.7019934
 20
-84.55463606
 30
0.0
 11
305.7019934
 21
-83.55387606000001
 31
0.0
  0
LINE
  5
11E
330
335
100
AcDbEntity
  8
0
 62
     7
420
 16777215
100
AcDbLine
 10
305.7019934
 20
-83.55387606000001
 30
0.0
 11
306.9516733999999
 21
-83.55387606000001
 31
0.0
  0
LINE
  5
11F
330
335
100
AcDbEntity
  8
0
 62
     7
420
 16777215
100
AcDbLine
 10
306.9516733999999
 20
-83.55387606000001
 30
0.0
 11
306.9516733999999
 21
-84.55463606
 31
0.0
  0
LINE
  5
120
330
335
100
AcDbEntity
  8
0
 62
     7
420
 16777215
100
AcDbLine
 10
306.9516733999999
 20
-82.33086606
 30
0.0
 11
305.7019934
 21
-82.33086606
 31
0.0
  0
LINE
  5
121
330
335
100
AcDbEntity
  8
0
 62
     7
420
 16777215
100
AcDbLine
 10
305.7019934
 20
-82.33086606
 30
0.0
 11
305.7019934
 21
-81.33264606
 31
0.0
  0
LINE
  5
122
330
335
100
AcDbEntity
  8
0
 62
     7
420
 16777215
100
AcDbLine
 10
305.7019934
 20
-81.33264606
 30
0.0
 11
306.9516733999999
 21
-81.33264606
 31
0.0
  0
LINE
  5
123
330
335
100
AcDbEntity
  8
0
 62
     7
420
 16777215
100
AcDbLine
 10
306.9516733999999
 20
-81.33264606
 30
0.0
 11
306.9516733999999
 21
-82.33086606
 31
0.0
  0
LINE
  5
124
330
335
100
AcDbEntity
  8
0
 62
     7
420
 16777215
100
AcDbLine
 10
307.36708193
 20
-88.55469038000001
 30
0.0
 11
308.6167619299999
 21
-88.55469038000001
 31
0.0
  0
LINE
  5
125
330
335
100
AcDbEntity
  8
0
 62
     7
420
 16777215
100
AcDbLine
 10
308.6167619299999
 20
-88.55469038000001
 30
0.0
 11
308.6167619299999
 21
-89.55291038
 31
0.0
  0
LINE
  5
126
330
335
100
AcDbEntity
  8
0
 62
     7
420
 16777215
100
AcDbLine
 10
308.6167619299999
 20
-89.55291038
 30
0.0
 11
307.36708193
 21
-89.55291038
 31
0.0
  0
LINE
  5
127
330
335
100
AcDbEntity
  8
0
 62
     7
420
 16777215
100
AcDbLine
 10
307.36708193
 20
-89.55291038
 30
0.0
 11
307.36708193
 21
-88.55469038000001
 31
0.0
  0
LINE
  5
128
330
335
100
AcDbEntity
  8
0
 62
     7
420
 16777215
100
AcDbLine
 10
307.36708193
 20
-90.77592026
 30
0.0
 11
308.6167619299999
 21
-90.77592026
 31
0.0
  0
LINE
  5
129
330
335
100
AcDbEntity
  8
0
 62
     7
420
 16777215
100
AcDbLine
 10
308.6167619299999
 20
-90.77592026
 30
0.0
 11
308.6167619299999
 21
-91.77668026
 31
0.0
  0
LINE
  5
12A
330
335
100
AcDbEntity
  8
0
 62
     7
420
 16777215
100
AcDbLine
 10
308.6167619299999
 20
-91.77668026
 30
0.0
 11
307.36708193
 21
-91.77668026
 31
0.0
  0
LINE
  5
12B
330
335
100
AcDbEntity
  8
0
 62
     7
420
 16777215
100
AcDbLine
 10
307.36708193
 20
-91.77668026
 30
0.0
 11
307.36708193
 21
-90.77592026
 31
0.0
  0
LINE
  5
12C
330
335
100
AcDbEntity
  8
0
 62
     7
420
 16777215
100
AcDbLine
 10
295.82715649
 20
-79.67811828
 30
0.0
 11
295.82715649
 21
-78.42843828000001
 31
0.0
  0
LINE
  5
12D
330
335
100
AcDbEntity
  8
0
 62
     7
420
 16777215
100
AcDbLine
 10
295.82715649
 20
-78.42843828000001
 30
0.0
 11
296.8253764899999
 21
-78.42843828000001
 31
0.0
  0
LINE
  5
12E
330
335
100
AcDbEntity
  8
0
 62
     7
420
 16777215
100
AcDbLine
 10
296.8253764899999
 20
-78.42843828000001
 30
0.0
 11
296.8253764899999
 21
-79.67811828
 31
0.0
  0
LINE
  5
12F
330
335
100
AcDbEntity
  8
0
 62
     7
420
 16777215
100
AcDbLine
 10
296.8253764899999
 20
-79.67811828
 30
0.0
 11
295.82715649
 21
-79.67811828
 31
0.0
  0
LINE
  5
130
330
335
100
AcDbEntity
  8
0
 62
     7
420
 16777215
100
AcDbLine
 10
298.04838649
 20
-79.67811828
 30
0.0
 11
298.04838649
 21
-78.42843828000001
 31
0.0
  0
LINE
  5
131
330
335
100
AcDbEntity
  8
0
 62
     7
420
 16777215
100
AcDbLine
 10
298.04838649
 20
-78.42843828000001
 30
0.0
 11
299.0491464899999
 21
-78.42843828000001
 31
0.0
  0
LINE
  5
132
330
335
100
AcDbEntity
  8
0
 62
     7
420
 16777215
100
AcDbLine
 10
299.0491464899999
 20
-78.42843828000001
 30
0.0
 11
299.0491464899999
 21
-79.67811828
 31
0.0
  0
LINE
  5
133
330
335
100
AcDbEntity
  8
0
 62
     7
420
 16777215
100
AcDbLine
 10
299.0491464899999
 20
-79.67811828
 30
0.0
 11
298.04838649
 21
-79.67811828
 31
0.0
  0
LINE
  5
134
330
335
100
AcDbEntity
  8
0
 62
     7
420
 16777215
100
AcDbLine
 10
291.2711244
 20
-80.65232704
 30
0.0
 11
291.2711244
 21
-81.90200704
 31
0.0
  0
LINE
  5
135
330
335
100
AcDbEntity
  8
0
 62
     7
420
 16777215
100
AcDbLine
 10
291.2711244
 20
-81.90200704
 30
0.0
 11
290.2703643999999
 21
-81.90200704
 31
0.0
  0
LINE
  5
136
330
335
100
AcDbEntity
  8
0
 62
     7
420
 16777215
100
AcDbLine
 10
290.2703643999999
 20
-81.90200704
 30
0.0
 11
290.2703643999999
 21
-80.65232704
 31
0.0
  0
LINE
  5
137
330
335
100
AcDbEntity
  8
0
 62
     7
420
 16777215
100
AcDbLine
 10
290.2703643999999
 20
-80.65232704
 30
0.0
 11
291.2711244
 21
-80.65232704
 31
0.0
  0
LINE
  5
138
330
335
100
AcDbEntity
  8
0
 62
     7
420
 16777215
100
AcDbLine
 10
289.0473544
 20
-80.65232704
 30
0.0
 11
289.0473544
 21
-81.90200704
 31
0.0
  0
LINE
  5
139
330
335
100
AcDbEntity
  8
0
 62
     7
420
 16777215
100
AcDbLine
 10
289.0473544
 20
-81.90200704
 30
0.0
 11
288.0491344
 21
-81.90200704
 31
0.0
  0
LINE
  5
13A
330
335
100
AcDbEntity
  8
0
 62
     7
420
 16777215
100
AcDbLine
 10
288.0491344
 20
-81.90200704
 30
0.0
 11
288.0491344
 21
-80.65232704
 31
0.0
  0
LINE
  5
13B
330
335
100
AcDbEntity
  8
0
 62
     7
420
 16777215
100
AcDbLine
 10
288.0491344
 20
-80.65232704
 30
0.0
 11
289.0473544
 21
-80.65232704
 31
0.0
  0
LINE
  5
13C
330
335
100
AcDbEntity
  8
0
 62
     7
420
 16777215
100
AcDbLine
 10
286.2568598299999
 20
-87.99885371
 30
0.0
 11
287.50653983
 21
-87.99885371
 31
0.0
  0
LINE
  5
13D
330
335
100
AcDbEntity
  8
0
 62
     7
420
 16777215
100
AcDbLine
 10
287.50653983
 20
-87.99885371
 30
0.0
 11
287.50653983
 21
-88.99961371
 31
0.0
  0
LINE
  5
13E
330
335
100
AcDbEntity
  8
0
 62
     7
420
 16777215
100
AcDbLine
 10
287.50653983
 20
-88.99961371
 30
0.0
 11
286.2568598299999
 21
-88.99961371
 31
0.0
  0
LINE
  5
13F
330
335
100
AcDbEntity
  8
0
 62
     7
420
 16777215
100
AcDbLine
 10
286.2568598299999
 20
-88.99961371
 30
0.0
 11
286.2568598299999
 21
-87.99885371
 31
0.0
  0
LINE
  5
140
330
335
100
AcDbEntity
  8
0
 62
     7
420
 16777215
100
AcDbLine
 10
286.2568598299999
 20
-90.2199426
 30
0.0
 11
287.50653983
 21
-90.2199426
 31
0.0
  0
LINE
  5
141
330
335
100
AcDbEntity
  8
0
 62
     7
420
 16777215
100
AcDbLine
 10
287.50653983
 20
-90.2199426
 30
0.0
 11
287.50653983
 21
-91.22070260000001
 31
0.0
  0
LINE
  5
142
330
335
100
AcDbEntity
  8
0
 62
     7
420
 16777215
100
AcDbLine
 10
287.50653983
 20
-91.22070260000001
 30
0.0
 11
286.2568598299999
 21
-91.22070260000001
 31
0.0
  0
LINE
  5
143
330
335
100
AcDbEntity
  8
0
 62
     7
420
 16777215
100
AcDbLine
 10
286.2568598299999
 20
-91.22070260000001
 30
0.0
 11
286.2568598299999
 21
-90.2199426
 31
0.0
  0
LINE
  5
144
330
335
100
AcDbEntity
  8
0
 62
     7
420
 16777215
100
AcDbLine
 10
307.26816305
 20
-102.0336236
 30
0.0
 11
308.71850305
 21
-102.0336236
 31
0.0
  0
LINE
  5
145
330
335
100
AcDbEntity
  8
0
 62
     7
420
 16777215
100
AcDbLine
 10
308.71850305
 20
-102.0336236
 30
0.0
 11
308.71850305
 21
-103.1842436
 31
0.0
  0
LINE
  5
146
330
335
100
AcDbEntity
  8
0
 62
     7
420
 16777215
100
AcDbLine
 10
308.71850305
 20
-103.1842436
 30
0.0
 11
307.26816305
 21
-103.1842436
 31
0.0
  0
LINE
  5
147
330
335
100
AcDbEntity
  8
0
 62
     7
420
 16777215
100
AcDbLine
 10
307.26816305
 20
-103.1842436
 30
0.0
 11
307.26816305
 21
-102.0336236
 31
0.0
  0
LINE
  5
148
330
335
100
AcDbEntity
  8
0
 62
     7
420
 16777215
100
AcDbLine
 10
307.26816305
 20
-104.03457915
 30
0.0
 11
308.71850305
 21
-104.03457915
 31
0.0
  0
LINE
  5
149
330
335
100
AcDbEntity
  8
0
 62
     7
420
 16777215
100
AcDbLine
 10
308.71850305
 20
-104.03457915
 30
0.0
 11
308.71850305
 21
-105.18519915
 31
0.0
  0
LINE
  5
14A
330
335
100
AcDbEntity
  8
0
 62
     7
420
 16777215
100
AcDbLine
 10
308.71850305
 20
-105.18519915
 30
0.0
 11
307.26816305
 21
-105.18519915
 31
0.0
  0
LINE
  5
14B
330
335
100
AcDbEntity
  8
0
 62
     7
420
 16777215
100
AcDbLine
 10
307.26816305
 20
-105.18519915
 30
0.0
 11
307.26816305
 21
-104.03457915
 31
0.0
  0
LINE
  5
14C
330
335
100
AcDbEntity
  8
0
 62
     7
420
 16777215
100
AcDbLine
 10
307.91320451
 20
-76.77854482000001
 30
0.0
 11
307.91320451
 21
-77.99774482000001
 31
0.0
  0
LINE
  5
14D
330
335
100
AcDbEntity
  8
0
 62
     7
420
 16777215
100
AcDbLine
 10
307.91320451
 20
-77.99774482000001
 30
0.0
 11
307.00388451
 21
-77.99774482000001
 31
0.0
  0
LINE
  5
14E
330
335
100
AcDbEntity
  8
0
 62
     7
420
 16777215
100
AcDbLine
 10
307.00388451
 20
-77.99774482000001
 30
0.0
 11
307.00388451
 21
-76.77854482000001
 31
0.0
  0
LINE
  5
14F
330
335
100
AcDbEntity
  8
0
 62
     7
420
 16777215
100
AcDbLine
 10
307.00388451
 20
-76.77854482000001
 30
0.0
 11
307.91320451
 21
-76.77854482000001
 31
0.0
  0
LINE
  5
150
330
335
100
AcDbEntity
  8
0
 62
     7
420
 16777215
100
AcDbLine
 10
304.2810045099999
 20
-76.77854482000001
 30
0.0
 11
304.2810045099999
 21
-77.99774482000001
 31
0.0
  0
LINE
  5
151
330
335
100
AcDbEntity
  8
0
 62
     7
420
 16777215
100
AcDbLine
 10
304.2810045099999
 20
-77.99774482000001
 30
0.0
 11
303.37168451
 21
-77.99774482000001
 31
0.0
  0
LINE
  5
152
330
335
100
AcDbEntity
  8
0
 62
     7
420
 16777215
100
AcDbLine
 10
303.37168451
 20
-77.99774482000001
 30
0.0
 11
303.37168451
 21
-76.77854482000001
 31
0.0
  0
LINE
  5
153
330
335
100
AcDbEntity
  8
0
 62
     7
420
 16777215
100
AcDbLine
 10
303.37168451
 20
-76.77854482000001
 30
0.0
 11
304.2810045099999
 21
-76.77854482000001
 31
0.0
  0
LINE
  5
154
330
335
100
AcDbEntity
  8
0
 62
     7
420
 16777215
100
AcDbLine
 10
300.0830675999999
 20
-103.76985471
 30
0.0
 11
301.1828876
 21
-103.76985471
 31
0.0
  0
LINE
  5
155
330
335
100
AcDbEntity
  8
0
 62
     7
420
 16777215
100
AcDbLine
 10
301.1828876
 20
-103.76985471
 30
0.0
 11
301.1828876
 21
-104.16863471
 31
0.0
  0
LINE
  5
156
330
335
100
AcDbEntity
  8
0
 62
     7
420
 16777215
100
AcDbLine
 10
301.1828876
 20
-104.16863471
 30
0.0
 11
300.0830675999999
 21
-104.16863471
 31
0.0
  0
LINE
  5
157
330
335
100
AcDbEntity
  8
0
 62
     7
420
 16777215
100
AcDbLine
 10
300.0830675999999
 20
-104.16863471
 30
0.0
 11
300.0830675999999
 21
-103.76985471
 31
0.0
  0
LINE
  5
158
330
335
100
AcDbEntity
  8
0
 62
     7
420
 16777215
100
AcDbLine
 10
300.0830675999999
 20
-103.04736582
 30
0.0
 11
301.1828876
 21
-103.04736582
 31
0.0
  0
LINE
  5
159
330
335
100
AcDbEntity
  8
0
 62
     7
420
 16777215
100
AcDbLine
 10
301.1828876
 20
-103.04736582
 30
0.0
 11
301.1828876
 21
-103.44614582
 31
0.0
  0
LINE
  5
15A
330
335
100
AcDbEntity
  8
0
 62
     7
420
 16777215
100
AcDbLine
 10
301.1828876
 20
-103.44614582
 30
0.0
 11
300.0830675999999
 21
-103.44614582
 31
0.0
  0
LINE
  5
15B
330
335
100
AcDbEntity
  8
0
 62
     7
420
 16777215
100
AcDbLine
 10
300.0830675999999
 20
-103.44614582
 30
0.0
 11
300.0830675999999
 21
-103.04736582
 31
0.0
  0
LINE
  5
15C
330
335
100
AcDbEntity
  8
0
 62
     7
420
 16777215
100
AcDbLine
 10
300.0830675999999
 20
-102.32487693
 30
0.0
 11
301.1828876
 21
-102.32487693
 31
0.0
  0
LINE
  5
15D
330
335
100
AcDbEntity
  8
0
 62
     7
420
 16777215
100
AcDbLine
 10
301.1828876
 20
-102.32487693
 30
0.0
 11
301.1828876
 21
-102.72365693
 31
0.0
  0
LINE
  5
15E
330
335
100
AcDbEntity
  8
0
 62
     7
420
 16777215
100
AcDbLine
 10
301.1828876
 20
-102.72365693
 30
0.0
 11
300.0830675999999
 21
-102.72365693
 31
0.0
  0
LINE
  5
15F
330
335
100
AcDbEntity
  8
0
 62
     7
420
 16777215
100
AcDbLine
 10
300.0830675999999
 20
-102.72365693
 30
0.0
 11
300.0830675999999
 21
-102.32487693
 31
0.0
  0
LINE
  5
160
330
335
100
AcDbEntity
  8
0
 62
     7
420
 16777215
100
AcDbLine
 10
300.0830675999999
 20
-101.60238804
 30
0.0
 11
301.1828876
 21
-101.60238804
 31
0.0
  0
LINE
  5
161
330
335
100
AcDbEntity
  8
0
 62
     7
420
 16777215
100
AcDbLine
 10
301.1828876
 20
-101.60238804
 30
0.0
 11
301.1828876
 21
-102.00116804
 31
0.0
  0
LINE
  5
162
330
335
100
AcDbEntity
  8
0
 62
     7
420
 16777215
100
AcDbLine
 10
301.1828876
 20
-102.00116804
 30
0.0
 11
300.0830675999999
 21
-102.00116804
 31
0.0
  0
LINE
  5
163
330
335
100
AcDbEntity
  8
0
 62
     7
420
 16777215
100
AcDbLine
 10
300.0830675999999
 20
-102.00116804
 30
0.0
 11
300.0830675999999
 21
-101.60238804
 31
0.0
  0
LINE
  5
164
330
335
100
AcDbEntity
  8
0
 62
     7
420
 16777215
100
AcDbLine
 10
300.0830675999999
 20
-100.87989915
 30
0.0
 11
301.1828876
 21
-100.87989915
 31
0.0
  0
LINE
  5
165
330
335
100
AcDbEntity
  8
0
 62
     7
420
 16777215
100
AcDbLine
 10
301.1828876
 20
-100.87989915
 30
0.0
 11
301.1828876
 21
-101.27867915
 31
0.0
  0
LINE
  5
166
330
335
100
AcDbEntity
  8
0
 62
     7
420
 16777215
100
AcDbLine
 10
301.1828876
 20
-101.27867915
 30
0.0
 11
300.0830675999999
 21
-101.27867915
 31
0.0
  0
LINE
  5
167
330
335
100
AcDbEntity
  8
0
 62
     7
420
 16777215
100
AcDbLine
 10
300.0830675999999
 20
-101.27867915
 30
0.0
 11
300.0830675999999
 21
-100.87989915
 31
0.0
  0
LINE
  5
168
330
335
100
AcDbEntity
  8
0
 62
     7
420
 16777215
100
AcDbLine
 10
300.0830675999999
 20
-100.16305471
 30
0.0
 11
301.1828876
 21
-100.16305471
 31
0.0
  0
LINE
  5
169
330
335
100
AcDbEntity
  8
0
 62
     7
420
 16777215
100
AcDbLine
 10
301.1828876
 20
-100.16305471
 30
0.0
 11
301.1828876
 21
-100.56183471
 31
0.0
  0
LINE
  5
16A
330
335
100
AcDbEntity
  8
0
 62
     7
420
 16777215
100
AcDbLine
 10
301.1828876
 20
-100.56183471
 30
0.0
 11
300.0830675999999
 21
-100.56183471
 31
0.0
  0
LINE
  5
16B
330
335
100
AcDbEntity
  8
0
 62
     7
420
 16777215
100
AcDbLine
 10
300.0830675999999
 20
-100.56183471
 30
0.0
 11
300.0830675999999
 21
-100.16305471
 31
0.0
  0
LINE
  5
16C
330
335
100
AcDbEntity
  8
0
 62
     7
420
 16777215
100
AcDbLine
 10
300.0830675999999
 20
-99.44056582000002
 30
0.0
 11
301.1828876
 21
-99.44056582000002
 31
0.0
  0
LINE
  5
16D
330
335
100
AcDbEntity
  8
0
 62
     7
420
 16777215
100
AcDbLine
 10
301.1828876
 20
-99.44056582000002
 30
0.0
 11
301.1828876
 21
-99.83934582
 31
0.0
  0
LINE
  5
16E
330
335
100
AcDbEntity
  8
0
 62
     7
420
 16777215
100
AcDbLine
 10
301.1828876
 20
-99.83934582
 30
0.0
 11
300.0830675999999
 21
-99.83934582
 31
0.0
  0
LINE
  5
16F
330
335
100
AcDbEntity
  8
0
 62
     7
420
 16777215
100
AcDbLine
 10
300.0830675999999
 20
-99.83934582
 30
0.0
 11
300.0830675999999
 21
-99.44056582000002
 31
0.0
  0
LINE
  5
170
330
335
100
AcDbEntity
  8
0
 62
     7
420
 16777215
100
AcDbLine
 10
300.0830675999999
 20
-98.71807693
 30
0.0
 11
301.1828876
 21
-98.71807693
 31
0.0
  0
LINE
  5
171
330
335
100
AcDbEntity
  8
0
 62
     7
420
 16777215
100
AcDbLine
 10
301.1828876
 20
-98.71807693
 30
0.0
 11
301.1828876
 21
-99.11685693000001
 31
0.0
  0
LINE
  5
172
330
335
100
AcDbEntity
  8
0
 62
     7
420
 16777215
100
AcDbLine
 10
301.1828876
 20
-99.11685693000001
 30
0.0
 11
300.0830675999999
 21
-99.11685693000001
 31
0.0
  0
LINE
  5
173
330
335
100
AcDbEntity
  8
0
 62
     7
420
 16777215
100
AcDbLine
 10
300.0830675999999
 20
-99.11685693000001
 30
0.0
 11
300.0830675999999
 21
-98.71807693
 31
0.0
  0
LINE
  5
174
330
335
100
AcDbEntity
  8
0
 62
     7
420
 16777215
100
AcDbLine
 10
300.0830675999999
 20
-97.99558804
 30
0.0
 11
301.1828876
 21
-97.99558804
 31
0.0
  0
LINE
  5
175
330
335
100
AcDbEntity
  8
0
 62
     7
420
 16777215
100
AcDbLine
 10
301.1828876
 20
-97.99558804
 30
0.0
 11
301.1828876
 21
-98.39436804000002
 31
0.0
  0
LINE
  5
176
330
335
100
AcDbEntity
  8
0
 62
     7
420
 16777215
100
AcDbLine
 10
301.1828876
 20
-98.39436804000002
 30
0.0
 11
300.0830675999999
 21
-98.39436804000002
 31
0.0
  0
LINE
  5
177
330
335
100
AcDbEntity
  8
0
 62
     7
420
 16777215
100
AcDbLine
 10
300.0830675999999
 20
-98.39436804000002
 30
0.0
 11
300.0830675999999
 21
-97.99558804
 31
0.0
  0
LINE
  5
178
330
335
100
AcDbEntity
  8
0
 62
     7
420
 16777215
100
AcDbLine
 10
300.0830675999999
 20
-97.27309915000001
 30
0.0
 11
301.1828876
 21
-97.27309915000001
 31
0.0
  0
LINE
  5
179
330
335
100
AcDbEntity
  8
0
 62
     7
420
 16777215
100
AcDbLine
 10
301.1828876
 20
-97.27309915000001
 30
0.0
 11
301.1828876
 21
-97.67187915000001
 31
0.0
  0
LINE
  5
17A
330
335
100
AcDbEntity
  8
0
 62
     7
420
 16777215
100
AcDbLine
 10
301.1828876
 20
-97.67187915000001
 30
0.0
 11
300.0830675999999
 21
-97.67187915000001
 31
0.0
  0
LINE
  5
17B
330
335
100
AcDbEntity
  8
0
 62
     7
420
 16777215
100
AcDbLine
 10
300.0830675999999
 20
-97.67187915000001
 30
0.0
 11
300.0830675999999
 21
-97.27309915000001
 31
0.0
  0
LINE
  5
17C
330
335
100
AcDbEntity
  8
0
 62
     7
420
 16777215
100
AcDbLine
 10
294.84984329
 20
-97.67190173
 30
0.0
 11
293.7500232899999
 21
-97.67190173
 31
0.0
  0
LINE
  5
17D
330
335
100
AcDbEntity
  8
0
 62
     7
420
 16777215
100
AcDbLine
 10
293.7500232899999
 20
-97.67190173
 30
0.0
 11
293.7500232899999
 21
-97.27312173000001
 31
0.0
  0
LINE
  5
17E
330
335
100
AcDbEntity
  8
0
 62
     7
420
 16777215
100
AcDbLine
 10
293.7500232899999
 20
-97.27312173000001
 30
0.0
 11
294.84984329
 21
-97.27312173000001
 31
0.0
  0
LINE
  5
17F
330
335
100
AcDbEntity
  8
0
 62
     7
420
 16777215
100
AcDbLine
 10
294.84984329
 20
-97.27312173000001
 30
0.0
 11
294.84984329
 21
-97.67190173
 31
0.0
  0
LINE
  5
180
330
335
100
AcDbEntity
  8
0
 62
     7
420
 16777215
100
AcDbLine
 10
294.84984329
 20
-98.39439062
 30
0.0
 11
293.7500232899999
 21
-98.39439062
 31
0.0
  0
LINE
  5
181
330
335
100
AcDbEntity
  8
0
 62
     7
420
 16777215
100
AcDbLine
 10
293.7500232899999
 20
-98.39439062
 30
0.0
 11
293.7500232899999
 21
-97.99561062000001
 31
0.0
  0
LINE
  5
182
330
335
100
AcDbEntity
  8
0
 62
     7
420
 16777215
100
AcDbLine
 10
293.7500232899999
 20
-97.99561062000001
 30
0.0
 11
294.84984329
 21
-97.99561062000001
 31
0.0
  0
LINE
  5
183
330
335
100
AcDbEntity
  8
0
 62
     7
420
 16777215
100
AcDbLine
 10
294.84984329
 20
-97.99561062000001
 30
0.0
 11
294.84984329
 21
-98.39439062
 31
0.0
  0
LINE
  5
184
330
335
100
AcDbEntity
  8
0
 62
     7
420
 16777215
100
AcDbLine
 10
294.84984329
 20
-99.11687951
 30
0.0
 11
293.7500232899999
 21
-99.11687951
 31
0.0
  0
LINE
  5
185
330
335
100
AcDbEntity
  8
0
 62
     7
420
 16777215
100
AcDbLine
 10
293.7500232899999
 20
-99.11687951
 30
0.0
 11
293.7500232899999
 21
-98.71809951
 31
0.0
  0
LINE
  5
186
330
335
100
AcDbEntity
  8
0
 62
     7
420
 16777215
100
AcDbLine
 10
293.7500232899999
 20
-98.71809951
 30
0.0
 11
294.84984329
 21
-98.71809951
 31
0.0
  0
LINE
  5
187
330
335
100
AcDbEntity
  8
0
 62
     7
420
 16777215
100
AcDbLine
 10
294.84984329
 20
-98.71809951
 30
0.0
 11
294.84984329
 21
-99.11687951
 31
0.0
  0
LINE
  5
188
330
335
100
AcDbEntity
  8
0
 62
     7
420
 16777215
100
AcDbLine
 10
294.84984329
 20
-99.83936840000001
 30
0.0
 11
293.7500232899999
 21
-99.83936840000001
 31
0.0
  0
LINE
  5
189
330
335
100
AcDbEntity
  8
0
 62
     7
420
 16777215
100
AcDbLine
 10
293.7500232899999
 20
-99.83936840000001
 30
0.0
 11
293.7500232899999
 21
-99.44058840000001
 31
0.0
  0
LINE
  5
18A
330
335
100
AcDbEntity
  8
0
 62
     7
420
 16777215
100
AcDbLine
 10
293.7500232899999
 20
-99.44058840000001
 30
0.0
 11
294.84984329
 21
-99.44058840000001
 31
0.0
  0
LINE
  5
18B
330
335
100
AcDbEntity
  8
0
 62
     7
420
 16777215
100
AcDbLine
 10
294.84984329
 20
-99.44058840000001
 30
0.0
 11
294.84984329
 21
-99.83936840000001
 31
0.0
  0
LINE
  5
18C
330
335
100
AcDbEntity
  8
0
 62
     7
420
 16777215
100
AcDbLine
 10
294.84984329
 20
-100.56185728
 30
0.0
 11
293.7500232899999
 21
-100.56185728
 31
0.0
  0
LINE
  5
18D
330
335
100
AcDbEntity
  8
0
 62
     7
420
 16777215
100
AcDbLine
 10
293.7500232899999
 20
-100.56185728
 30
0.0
 11
293.7500232899999
 21
-100.16307728
 31
0.0
  0
LINE
  5
18E
330
335
100
AcDbEntity
  8
0
 62
     7
420
 16777215
100
AcDbLine
 10
293.7500232899999
 20
-100.16307728
 30
0.0
 11
294.84984329
 21
-100.16307728
 31
0.0
  0
LINE
  5
18F
330
335
100
AcDbEntity
  8
0
 62
     7
420
 16777215
100
AcDbLine
 10
294.84984329
 20
-100.16307728
 30
0.0
 11
294.84984329
 21
-100.56185728
 31
0.0
  0
LINE
  5
190
330
335
100
AcDbEntity
  8
0
 62
     7
420
 16777215
100
AcDbLine
 10
294.84984329
 20
-101.27870173
 30
0.0
 11
293.7500232899999
 21
-101.27870173
 31
0.0
  0
LINE
  5
191
330
335
100
AcDbEntity
  8
0
 62
     7
420
 16777215
100
AcDbLine
 10
293.7500232899999
 20
-101.27870173
 30
0.0
 11
293.7500232899999
 21
-100.87992173
 31
0.0
  0
LINE
  5
192
330
335
100
AcDbEntity
  8
0
 62
     7
420
 16777215
100
AcDbLine
 10
293.7500232899999
 20
-100.87992173
 30
0.0
 11
294.84984329
 21
-100.87992173
 31
0.0
  0
LINE
  5
193
330
335
100
AcDbEntity
  8
0
 62
     7
420
 16777215
100
AcDbLine
 10
294.84984329
 20
-100.87992173
 30
0.0
 11
294.84984329
 21
-101.27870173
 31
0.0
  0
LINE
  5
194
330
335
100
AcDbEntity
  8
0
 62
     7
420
 16777215
100
AcDbLine
 10
294.84984329
 20
-102.00119062
 30
0.0
 11
293.7500232899999
 21
-102.00119062
 31
0.0
  0
LINE
  5
195
330
335
100
AcDbEntity
  8
0
 62
     7
420
 16777215
100
AcDbLine
 10
293.7500232899999
 20
-102.00119062
 30
0.0
 11
293.7500232899999
 21
-101.60241062
 31
0.0
  0
LINE
  5
196
330
335
100
AcDbEntity
  8
0
 62
     7
420
 16777215
100
AcDbLine
 10
293.7500232899999
 20
-101.60241062
 30
0.0
 11
294.84984329
 21
-101.60241062
 31
0.0
  0
LINE
  5
197
330
335
100
AcDbEntity
  8
0
 62
     7
420
 16777215
100
AcDbLine
 10
294.84984329
 20
-101.60241062
 30
0.0
 11
294.84984329
 21
-102.00119062
 31
0.0
  0
LINE
  5
198
330
335
100
AcDbEntity
  8
0
 62
     7
420
 16777215
100
AcDbLine
 10
294.84984329
 20
-102.72367951
 30
0.0
 11
293.7500232899999
 21
-102.72367951
 31
0.0
  0
LINE
  5
199
330
335
100
AcDbEntity
  8
0
 62
     7
420
 16777215
100
AcDbLine
 10
293.7500232899999
 20
-102.72367951
 30
0.0
 11
293.7500232899999
 21
-102.32489951
 31
0.0
  0
LINE
  5
19A
330
335
100
AcDbEntity
  8
0
 62
     7
420
 16777215
100
AcDbLine
 10
293.7500232899999
 20
-102.32489951
 30
0.0
 11
294.84984329
 21
-102.32489951
 31
0.0
  0
LINE
  5
19B
330
335
100
AcDbEntity
  8
0
 62
     7
420
 16777215
100
AcDbLine
 10
294.84984329
 20
-102.32489951
 30
0.0
 11
294.84984329
 21
-102.72367951
 31
0.0
  0
LINE
  5
19C
330
335
100
AcDbEntity
  8
0
 62
     7
420
 16777215
100
AcDbLine
 10
294.84984329
 20
-103.4461684
 30
0.0
 11
293.7500232899999
 21
-103.4461684
 31
0.0
  0
LINE
  5
19D
330
335
100
AcDbEntity
  8
0
 62
     7
420
 16777215
100
AcDbLine
 10
293.7500232899999
 20
-103.4461684
 30
0.0
 11
293.7500232899999
 21
-103.0473884
 31
0.0
  0
LINE
  5
19E
330
335
100
AcDbEntity
  8
0
 62
     7
420
 16777215
100
AcDbLine
 10
293.7500232899999
 20
-103.0473884
 30
0.0
 11
294.84984329
 21
-103.0473884
 31
0.0
  0
LINE
  5
19F
330
335
100
AcDbEntity
  8
0
 62
     7
420
 16777215
100
AcDbLine
 10
294.84984329
 20
-103.0473884
 30
0.0
 11
294.84984329
 21
-103.4461684
 31
0.0
  0
LINE
  5
1A0
330
335
100
AcDbEntity
  8
0
 62
     7
420
 16777215
100
AcDbLine
 10
294.84984329
 20
-104.16865728
 30
0.0
 11
293.7500232899999
 21
-104.16865728
 31
0.0
  0
LINE
  5
1A1
330
335
100
AcDbEntity
  8
0
 62
     7
420
 16777215
100
AcDbLine
 10
293.7500232899999
 20
-104.16865728
 30
0.0
 11
293.7500232899999
 21
-103.76987728
 31
0.0
  0
LINE
  5
1A2
330
335
100
AcDbEntity
  8
0
 62
     7
420
 16777215
100
AcDbLine
 10
293.7500232899999
 20
-103.76987728
 30
0.0
 11
294.84984329
 21
-103.76987728
 31
0.0
  0
LINE
  5
1A3
330
335
100
AcDbEntity
  8
0
 62
     7
420
 16777215
100
AcDbLine
 10
294.84984329
 20
-103.76987728
 30
0.0
 11
294.84984329
 21
-104.16865728
 31
0.0
  0
LINE
  5
1A4
330
335
100
AcDbEntity
  8
0
 62
     7
420
 16777215
100
AcDbLine
 10
283.6939998299999
 20
-81.06016050000001
 30
0.0
 11
283.6939998299999
 21
-80.6588405
 31
0.0
  0
LINE
  5
1A5
330
335
100
AcDbEntity
  8
0
 62
     7
420
 16777215
100
AcDbLine
 10
283.6939998299999
 20
-80.6588405
 30
0.0
 11
285.3449998299999
 21
-80.6588405
 31
0.0
  0
LINE
  5
1A6
330
335
100
AcDbEntity
  8
0
 62
     7
420
 16777215
100
AcDbLine
 10
285.3449998299999
 20
-80.6588405
 30
0.0
 11
285.3449998299999
 21
-81.06016050000001
 31
0.0
  0
LINE
  5
1A7
330
335
100
AcDbEntity
  8
0
 62
     7
420
 16777215
100
AcDbLine
 10
285.3449998299999
 20
-81.06016050000001
 30
0.0
 11
283.6939998299999
 21
-81.06016050000001
 31
0.0
  0
LINE
  5
1A8
330
335
100
AcDbEntity
  8
0
 62
     7
420
 16777215
100
AcDbLine
 10
283.6939998299999
 20
-81.78264939
 30
0.0
 11
283.6939998299999
 21
-81.38132939
 31
0.0
  0
LINE
  5
1A9
330
335
100
AcDbEntity
  8
0
 62
     7
420
 16777215
100
AcDbLine
 10
283.6939998299999
 20
-81.38132939
 30
0.0
 11
285.3449998299999
 21
-81.38132939
 31
0.0
  0
LINE
  5
1AA
330
335
100
AcDbEntity
  8
0
 62
     7
420
 16777215
100
AcDbLine
 10
285.3449998299999
 20
-81.38132939
 30
0.0
 11
285.3449998299999
 21
-81.78264939
 31
0.0
  0
LINE
  5
1AB
330
335
100
AcDbEntity
  8
0
 62
     7
420
 16777215
100
AcDbLine
 10
285.3449998299999
 20
-81.78264939
 30
0.0
 11
283.6939998299999
 21
-81.78264939
 31
0.0
  0
LINE
  5
1AC
330
335
100
AcDbEntity
  8
0
 62
     7
420
 16777215
100
AcDbLine
 10
283.6939998299999
 20
-82.50245717
 30
0.0
 11
283.6939998299999
 21
-82.10367717
 31
0.0
  0
LINE
  5
1AD
330
335
100
AcDbEntity
  8
0
 62
     7
420
 16777215
100
AcDbLine
 10
283.6939998299999
 20
-82.10367717
 30
0.0
 11
285.3449998299999
 21
-82.10367717
 31
0.0
  0
LINE
  5
1AE
330
335
100
AcDbEntity
  8
0
 62
     7
420
 16777215
100
AcDbLine
 10
285.3449998299999
 20
-82.10367717
 30
0.0
 11
285.3449998299999
 21
-82.50245717
 31
0.0
  0
LINE
  5
1AF
330
335
100
AcDbEntity
  8
0
 62
     7
420
 16777215
100
AcDbLine
 10
285.3449998299999
 20
-82.50245717
 30
0.0
 11
283.6939998299999
 21
-82.50245717
 31
0.0
  0
LINE
  5
1B0
330
335
100
AcDbEntity
  8
0
 62
     7
420
 16777215
100
AcDbLine
 10
283.6939998299999
 20
-83.22762717
 30
0.0
 11
283.6939998299999
 21
-82.82630717
 31
0.0
  0
LINE
  5
1B1
330
335
100
AcDbEntity
  8
0
 62
     7
420
 16777215
100
AcDbLine
 10
283.6939998299999
 20
-82.82630717
 30
0.0
 11
285.3449998299999
 21
-82.82630717
 31
0.0
  0
LINE
  5
1B2
330
335
100
AcDbEntity
  8
0
 62
     7
420
 16777215
100
AcDbLine
 10
285.3449998299999
 20
-82.82630717
 30
0.0
 11
285.3449998299999
 21
-83.22762717
 31
0.0
  0
LINE
  5
1B3
330
335
100
AcDbEntity
  8
0
 62
     7
420
 16777215
100
AcDbLine
 10
285.3449998299999
 20
-83.22762717
 30
0.0
 11
283.6939998299999
 21
-83.22762717
 31
0.0
  0
LINE
  5
1B4
330
335
100
AcDbEntity
  8
0
 62
     7
420
 16777215
100
AcDbLine
 10
283.6939998299999
 20
-83.94743495
 30
0.0
 11
283.6939998299999
 21
-83.54865495
 31
0.0
  0
LINE
  5
1B5
330
335
100
AcDbEntity
  8
0
 62
     7
420
 16777215
100
AcDbLine
 10
283.6939998299999
 20
-83.54865495
 30
0.0
 11
285.3449998299999
 21
-83.54865495
 31
0.0
  0
LINE
  5
1B6
330
335
100
AcDbEntity
  8
0
 62
     7
420
 16777215
100
AcDbLine
 10
285.3449998299999
 20
-83.54865495
 30
0.0
 11
285.3449998299999
 21
-83.94743495
 31
0.0
  0
LINE
  5
1B7
330
335
100
AcDbEntity
  8
0
 62
     7
420
 16777215
100
AcDbLine
 10
285.3449998299999
 20
-83.94743495
 30
0.0
 11
283.6939998299999
 21
-83.94743495
 31
0.0
  0
LINE
  5
1B8
330
335
100
AcDbEntity
  8
0
 62
     7
420
 16777215
100
AcDbLine
 10
279.79848649
 20
-81.94591495
 30
0.0
 11
279.79848649
 21
-80.52097495000001
 31
0.0
  0
LINE
  5
1B9
330
335
100
AcDbEntity
  8
0
 62
     7
420
 16777215
100
AcDbLine
 10
279.79848649
 20
-80.52097495000001
 30
0.0
 11
282.29784649
 21
-80.52097495000001
 31
0.0
  0
LINE
  5
1BA
330
335
100
AcDbEntity
  8
0
 62
     7
420
 16777215
100
AcDbLine
 10
282.29784649
 20
-80.52097495000001
 30
0.0
 11
282.29784649
 21
-81.94591495
 31
0.0
  0
LINE
  5
1BB
330
335
100
AcDbEntity
  8
0
 62
     7
420
 16777215
100
AcDbLine
 10
282.29784649
 20
-81.94591495
 30
0.0
 11
279.79848649
 21
-81.94591495
 31
0.0
  0
LINE
  5
1BC
330
335
100
AcDbEntity
  8
0
 62
     7
420
 16777215
100
AcDbLine
 10
279.79848649
 20
-84.08515939
 30
0.0
 11
279.79848649
 21
-82.66021939000001
 31
0.0
  0
LINE
  5
1BD
330
335
100
AcDbEntity
  8
0
 62
     7
420
 16777215
100
AcDbLine
 10
279.79848649
 20
-82.66021939000001
 30
0.0
 11
282.29784649
 21
-82.66021939000001
 31
0.0
  0
LINE
  5
1BE
330
335
100
AcDbEntity
  8
0
 62
     7
420
 16777215
100
AcDbLine
 10
282.29784649
 20
-82.66021939000001
 30
0.0
 11
282.29784649
 21
-84.08515939
 31
0.0
  0
LINE
  5
1BF
330
335
100
AcDbEntity
  8
0
 62
     7
420
 16777215
100
AcDbLine
 10
282.29784649
 20
-84.08515939
 30
0.0
 11
279.79848649
 21
-84.08515939
 31
0.0
  0
LINE
  5
1C0
330
335
100
AcDbEntity
  8
0
 62
     7
420
 16777215
100
AcDbLine
 10
309.68668896
 20
-64.52135149
 30
0.0
 11
309.68668896
 21
-67.91987149
 31
0.0
  0
LINE
  5
1C1
330
335
100
AcDbEntity
  8
0
 62
     7
420
 16777215
100
AcDbLine
 10
309.68668896
 20
-67.91987149
 30
0.0
 11
308.18808896
 21
-67.91987149
 31
0.0
  0
LINE
  5
1C2
330
335
100
AcDbEntity
  8
0
 62
     7
420
 16777215
100
AcDbLine
 10
308.18808896
 20
-67.91987149
 30
0.0
 11
308.18808896
 21
-64.52135149
 31
0.0
  0
LINE
  5
1C3
330
335
100
AcDbEntity
  8
0
 62
     7
420
 16777215
100
AcDbLine
 10
308.18808896
 20
-64.52135149
 30
0.0
 11
309.68668896
 21
-64.52135149
 31
0.0
  0
LINE
  5
1C4
330
335
100
AcDbEntity
  8
0
 62
     7
420
 16777215
100
AcDbLine
 10
302.2416666199999
 20
-64.52135149
 30
0.0
 11
302.2416666199999
 21
-67.91987149
 31
0.0
  0
LINE
  5
1C5
330
335
100
AcDbEntity
  8
0
 62
     7
420
 16777215
100
AcDbLine
 10
302.2416666199999
 20
-67.91987149
 30
0.0
 11
300.74306662
 21
-67.91987149
 31
0.0
  0
LINE
  5
1C6
330
335
100
AcDbEntity
  8
0
 62
     7
420
 16777215
100
AcDbLine
 10
300.74306662
 20
-67.91987149
 30
0.0
 11
300.74306662
 21
-64.52135149
 31
0.0
  0
LINE
  5
1C7
330
335
100
AcDbEntity
  8
0
 62
     7
420
 16777215
100
AcDbLine
 10
300.74306662
 20
-64.52135149
 30
0.0
 11
302.2416666199999
 21
-64.52135149
 31
0.0
  0
LINE
  5
1C8
330
335
100
AcDbEntity
  8
0
 62
     7
420
 16777215
100
AcDbLine
 10
306.8272133999999
 20
-70.63710704
 30
0.0
 11
306.8272133999999
 21
-74.13722704
 31
0.0
  0
LINE
  5
1C9
330
335
100
AcDbEntity
  8
0
 62
     7
420
 16777215
100
AcDbLine
 10
306.8272133999999
 20
-74.13722704
 30
0.0
 11
305.8264534
 21
-74.13722704
 31
0.0
  0
LINE
  5
1CA
330
335
100
AcDbEntity
  8
0
 62
     7
420
 16777215
100
AcDbLine
 10
305.8264534
 20
-74.13722704
 30
0.0
 11
305.8264534
 21
-70.63710704
 31
0.0
  0
LINE
  5
1CB
330
335
100
AcDbEntity
  8
0
 62
     7
420
 16777215
100
AcDbLine
 10
305.8264534
 20
-70.63710704
 30
0.0
 11
306.8272133999999
 21
-70.63710704
 31
0.0
  0
LINE
  5
1CC
330
335
100
AcDbEntity
  8
0
 62
     7
420
 16777215
100
AcDbLine
 10
304.60330229
 20
-70.63710704
 30
0.0
 11
304.60330229
 21
-74.13722704
 31
0.0
  0
LINE
  5
1CD
330
335
100
AcDbEntity
  8
0
 62
     7
420
 16777215
100
AcDbLine
 10
304.60330229
 20
-74.13722704
 30
0.0
 11
303.60254229
 21
-74.13722704
 31
0.0
  0
LINE
  5
1CE
330
335
100
AcDbEntity
  8
0
 62
     7
420
 16777215
100
AcDbLine
 10
303.60254229
 20
-74.13722704
 30
0.0
 11
303.60254229
 21
-70.63710704
 31
0.0
  0
LINE
  5
1CF
330
335
100
AcDbEntity
  8
0
 62
     7
420
 16777215
100
AcDbLine
 10
303.60254229
 20
-70.63710704
 30
0.0
 11
304.60330229
 21
-70.63710704
 31
0.0
  0
LINE
  5
1D0
330
335
100
AcDbEntity
  8
0
 62
     7
420
 16777215
100
AcDbLine
 10
296.35436995
 20
-64.52135149
 30
0.0
 11
296.35436995
 21
-67.91987149
 31
0.0
  0
LINE
  5
1D1
330
335
100
AcDbEntity
  8
0
 62
     7
420
 16777215
100
AcDbLine
 10
296.35436995
 20
-67.91987149
 30
0.0
 11
294.85322995
 21
-67.91987149
 31
0.0
  0
LINE
  5
1D2
330
335
100
AcDbEntity
  8
0
 62
     7
420
 16777215
100
AcDbLine
 10
294.85322995
 20
-67.91987149
 30
0.0
 11
294.85322995
 21
-64.52135149
 31
0.0
  0
LINE
  5
1D3
330
335
100
AcDbEntity
  8
0
 62
     7
420
 16777215
100
AcDbLine
 10
294.85322995
 20
-64.52135149
 30
0.0
 11
296.35436995
 21
-64.52135149
 31
0.0
  0
LINE
  5
1D4
330
335
100
AcDbEntity
  8
0
 62
     7
420
 16777215
100
AcDbLine
 10
288.90934773
 20
-64.52135149
 30
0.0
 11
288.90934773
 21
-67.91987149
 31
0.0
  0
LINE
  5
1D5
330
335
100
AcDbEntity
  8
0
 62
     7
420
 16777215
100
AcDbLine
 10
288.90934773
 20
-67.91987149
 30
0.0
 11
287.40820773
 21
-67.91987149
 31
0.0
  0
LINE
  5
1D6
330
335
100
AcDbEntity
  8
0
 62
     7
420
 16777215
100
AcDbLine
 10
287.40820773
 20
-67.91987149
 30
0.0
 11
287.40820773
 21
-64.52135149
 31
0.0
  0
LINE
  5
1D7
330
335
100
AcDbEntity
  8
0
 62
     7
420
 16777215
100
AcDbLine
 10
287.40820773
 20
-64.52135149
 30
0.0
 11
288.90934773
 21
-64.52135149
 31
0.0
  0
LINE
  5
1D8
330
335
100
AcDbEntity
  8
0
 62
     7
420
 16777215
100
AcDbLine
 10
293.4922132899999
 20
-70.63710704
 30
0.0
 11
293.4922132899999
 21
-74.13722704
 31
0.0
  0
LINE
  5
1D9
330
335
100
AcDbEntity
  8
0
 62
     7
420
 16777215
100
AcDbLine
 10
293.4922132899999
 20
-74.13722704
 30
0.0
 11
292.49145329
 21
-74.13722704
 31
0.0
  0
LINE
  5
1DA
330
335
100
AcDbEntity
  8
0
 62
     7
420
 16777215
100
AcDbLine
 10
292.49145329
 20
-74.13722704
 30
0.0
 11
292.49145329
 21
-70.63710704
 31
0.0
  0
LINE
  5
1DB
330
335
100
AcDbEntity
  8
0
 62
     7
420
 16777215
100
AcDbLine
 10
292.49145329
 20
-70.63710704
 30
0.0
 11
293.4922132899999
 21
-70.63710704
 31
0.0
  0
LINE
  5
1DC
330
335
100
AcDbEntity
  8
0
 62
     7
420
 16777215
100
AcDbLine
 10
291.2711244
 20
-70.63710704
 30
0.0
 11
291.2711244
 21
-74.13722704
 31
0.0
  0
LINE
  5
1DD
330
335
100
AcDbEntity
  8
0
 62
     7
420
 16777215
100
AcDbLine
 10
291.2711244
 20
-74.13722704
 30
0.0
 11
290.2703643999999
 21
-74.13722704
 31
0.0
  0
LINE
  5
1DE
330
335
100
AcDbEntity
  8
0
 62
     7
420
 16777215
100
AcDbLine
 10
290.2703643999999
 20
-74.13722704
 30
0.0
 11
290.2703643999999
 21
-70.63710704
 31
0.0
  0
LINE
  5
1DF
330
335
100
AcDbEntity
  8
0
 62
     7
420
 16777215
100
AcDbLine
 10
290.2703643999999
 20
-70.63710704
 30
0.0
 11
291.2711244
 21
-70.63710704
 31
0.0
  0
LINE
  5
1E0
330
335
100
AcDbEntity
  8
0
 62
     7
420
 16777215
100
AcDbLine
 10
291.03248316
 20
-87.48156273000001
 30
0.0
 11
291.03248316
 21
-86.18108273
 31
0.0
  0
LINE
  5
1E1
330
335
100
AcDbEntity
  8
0
 62
     7
420
 16777215
100
AcDbLine
 10
291.03248316
 20
-86.18108273
 30
0.0
 11
291.7309831599999
 21
-86.18108273
 31
0.0
  0
LINE
  5
1E2
330
335
100
AcDbEntity
  8
0
 62
     7
420
 16777215
100
AcDbLine
 10
291.7309831599999
 20
-86.18108273
 30
0.0
 11
291.7309831599999
 21
-87.48156273000001
 31
0.0
  0
LINE
  5
1E3
330
335
100
AcDbEntity
  8
0
 62
     7
420
 16777215
100
AcDbLine
 10
291.7309831599999
 20
-87.48156273000001
 30
0.0
 11
291.03248316
 21
-87.48156273000001
 31
0.0
  0
LINE
  5
1E4
330
335
100
AcDbEntity
  8
0
 62
     7
420
 16777215
100
AcDbLine
 10
293.14350538
 20
-87.48156273000001
 30
0.0
 11
293.14350538
 21
-86.18108273
 31
0.0
  0
LINE
  5
1E5
330
335
100
AcDbEntity
  8
0
 62
     7
420
 16777215
100
AcDbLine
 10
293.14350538
 20
-86.18108273
 30
0.0
 11
293.8420053799999
 21
-86.18108273
 31
0.0
  0
LINE
  5
1E6
330
335
100
AcDbEntity
  8
0
 62
     7
420
 16777215
100
AcDbLine
 10
293.8420053799999
 20
-86.18108273
 30
0.0
 11
293.8420053799999
 21
-87.48156273000001
 31
0.0
  0
LINE
  5
1E7
330
335
100
AcDbEntity
  8
0
 62
     7
420
 16777215
100
AcDbLine
 10
293.8420053799999
 20
-87.48156273000001
 30
0.0
 11
293.14350538
 21
-87.48156273000001
 31
0.0
  0
LINE
  5
1E8
330
335
100
AcDbEntity
  8
0
 62
     7
420
 16777215
100
AcDbLine
 10
293.84202773
 20
-83.40399371000001
 30
0.0
 11
293.84202773
 21
-84.70447371
 31
0.0
  0
LINE
  5
1E9
330
335
100
AcDbEntity
  8
0
 62
     7
420
 16777215
100
AcDbLine
 10
293.84202773
 20
-84.70447371
 30
0.0
 11
293.14352773
 21
-84.70447371
 31
0.0
  0
LINE
  5
1EA
330
335
100
AcDbEntity
  8
0
 62
     7
420
 16777215
100
AcDbLine
 10
293.14352773
 20
-84.70447371
 30
0.0
 11
293.14352773
 21
-83.40399371000001
 31
0.0
  0
LINE
  5
1EB
330
335
100
AcDbEntity
  8
0
 62
     7
420
 16777215
100
AcDbLine
 10
293.14352773
 20
-83.40399371000001
 30
0.0
 11
293.84202773
 21
-83.40399371000001
 31
0.0
  0
LINE
  5
1EC
330
335
100
AcDbEntity
  8
0
 62
     7
420
 16777215
100
AcDbLine
 10
291.7310055099999
 20
-83.40399371000001
 30
0.0
 11
291.7310055099999
 21
-84.70447371
 31
0.0
  0
LINE
  5
1ED
330
335
100
AcDbEntity
  8
0
 62
     7
420
 16777215
100
AcDbLine
 10
291.7310055099999
 20
-84.70447371
 30
0.0
 11
291.03250551
 21
-84.70447371
 31
0.0
  0
LINE
  5
1EE
330
335
100
AcDbEntity
  8
0
 62
     7
420
 16777215
100
AcDbLine
 10
291.03250551
 20
-84.70447371
 30
0.0
 11
291.03250551
 21
-83.40399371000001
 31
0.0
  0
LINE
  5
1EF
330
335
100
AcDbEntity
  8
0
 62
     7
420
 16777215
100
AcDbLine
 10
291.03250551
 20
-83.40399371000001
 30
0.0
 11
291.7310055099999
 21
-83.40399371000001
 31
0.0
  0
LINE
  5
1F0
330
335
100
AcDbEntity
  8
0
 62
     7
420
 16777215
100
AcDbLine
 10
310.86609562
 20
-84.90430939000001
 30
0.0
 11
309.56561562
 21
-84.90430939000001
 31
0.0
  0
LINE
  5
1F1
330
335
100
AcDbEntity
  8
0
 62
     7
420
 16777215
100
AcDbLine
 10
309.56561562
 20
-84.90430939000001
 30
0.0
 11
309.56561562
 21
-84.20326939
 31
0.0
  0
LINE
  5
1F2
330
335
100
AcDbEntity
  8
0
 62
     7
420
 16777215
100
AcDbLine
 10
309.56561562
 20
-84.20326939
 30
0.0
 11
310.86609562
 21
-84.20326939
 31
0.0
  0
LINE
  5
1F3
330
335
100
AcDbEntity
  8
0
 62
     7
420
 16777215
100
AcDbLine
 10
310.86609562
 20
-84.20326939
 30
0.0
 11
310.86609562
 21
-84.90430939000001
 31
0.0
  0
LINE
  5
1F4
330
335
100
AcDbEntity
  8
0
 62
     7
420
 16777215
100
AcDbLine
 10
310.86609562
 20
-82.79328717
 30
0.0
 11
309.56561562
 21
-82.79328717
 31
0.0
  0
LINE
  5
1F5
330
335
100
AcDbEntity
  8
0
 62
     7
420
 16777215
100
AcDbLine
 10
309.56561562
 20
-82.79328717
 30
0.0
 11
309.56561562
 21
-82.09224717000001
 31
0.0
  0
LINE
  5
1F6
330
335
100
AcDbEntity
  8
0
 62
     7
420
 16777215
100
AcDbLine
 10
309.56561562
 20
-82.09224717000001
 30
0.0
 11
310.86609562
 21
-82.09224717000001
 31
0.0
  0
LINE
  5
1F7
330
335
100
AcDbEntity
  8
0
 62
     7
420
 16777215
100
AcDbLine
 10
310.86609562
 20
-82.09224717000001
 30
0.0
 11
310.86609562
 21
-82.79328717
 31
0.0
  0
LINE
  5
1F8
330
335
100
AcDbEntity
  8
0
 62
     7
420
 16777215
100
AcDbLine
 10
296.03077983
 20
-76.37047384
 30
0.0
 11
296.03077983
 21
-75.06999384
 31
0.0
  0
LINE
  5
1F9
330
335
100
AcDbEntity
  8
0
 62
     7
420
 16777215
100
AcDbLine
 10
296.03077983
 20
-75.06999384
 30
0.0
 11
296.7318198299999
 21
-75.06999384
 31
0.0
  0
LINE
  5
1FA
330
335
100
AcDbEntity
  8
0
 62
     7
420
 16777215
100
AcDbLine
 10
296.7318198299999
 20
-75.06999384
 30
0.0
 11
296.7318198299999
 21
-76.37047384
 31
0.0
  0
LINE
  5
1FB
330
335
100
AcDbEntity
  8
0
 62
     7
420
 16777215
100
AcDbLine
 10
296.7318198299999
 20
-76.37047384
 30
0.0
 11
296.03077983
 21
-76.37047384
 31
0.0
  0
LINE
  5
1FC
330
335
100
AcDbEntity
  8
0
 62
     7
420
 16777215
100
AcDbLine
 10
298.14180205
 20
-76.37047384
 30
0.0
 11
298.14180205
 21
-75.06999384
 31
0.0
  0
LINE
  5
1FD
330
335
100
AcDbEntity
  8
0
 62
     7
420
 16777215
100
AcDbLine
 10
298.14180205
 20
-75.06999384
 30
0.0
 11
298.8428420499999
 21
-75.06999384
 31
0.0
  0
LINE
  5
1FE
330
335
100
AcDbEntity
  8
0
 62
     7
420
 16777215
100
AcDbLine
 10
298.8428420499999
 20
-75.06999384
 30
0.0
 11
298.8428420499999
 21
-76.37047384
 31
0.0
  0
LINE
  5
1FF
330
335
100
AcDbEntity
  8
0
 62
     7
420
 16777215
100
AcDbLine
 10
298.8428420499999
 20
-76.37047384
 30
0.0
 11
298.14180205
 21
-76.37047384
 31
0.0
  0
LINE
  5
200
330
335
100
AcDbEntity
  8
0
 62
     7
420
 16777215
100
AcDbLine
 10
304.9206386
 20
-87.48156273000001
 30
0.0
 11
304.9206386
 21
-86.18108273
 31
0.0
  0
LINE
  5
201
330
335
100
AcDbEntity
  8
0
 62
     7
420
 16777215
100
AcDbLine
 10
304.9206386
 20
-86.18108273
 30
0.0
 11
305.6191386
 21
-86.18108273
 31
0.0
  0
LINE
  5
202
330
335
100
AcDbEntity
  8
0
 62
     7
420
 16777215
100
AcDbLine
 10
305.6191386
 20
-86.18108273
 30
0.0
 11
305.6191386
 21
-87.48156273000001
 31
0.0
  0
LINE
  5
203
330
335
100
AcDbEntity
  8
0
 62
     7
420
 16777215
100
AcDbLine
 10
305.6191386
 20
-87.48156273000001
 30
0.0
 11
304.9206386
 21
-87.48156273000001
 31
0.0
  0
LINE
  5
204
330
335
100
AcDbEntity
  8
0
 62
     7
420
 16777215
100
AcDbLine
 10
307.03166082
 20
-87.48156273000001
 30
0.0
 11
307.03166082
 21
-86.18108273
 31
0.0
  0
LINE
  5
205
330
335
100
AcDbEntity
  8
0
 62
     7
420
 16777215
100
AcDbLine
 10
307.03166082
 20
-86.18108273
 30
0.0
 11
307.73016082
 21
-86.18108273
 31
0.0
  0
LINE
  5
206
330
335
100
AcDbEntity
  8
0
 62
     7
420
 16777215
100
AcDbLine
 10
307.73016082
 20
-86.18108273
 30
0.0
 11
307.73016082
 21
-87.48156273000001
 31
0.0
  0
LINE
  5
207
330
335
100
AcDbEntity
  8
0
 62
     7
420
 16777215
100
AcDbLine
 10
307.73016082
 20
-87.48156273000001
 30
0.0
 11
307.03166082
 21
-87.48156273000001
 31
0.0
  0
LINE
  5
208
330
335
100
AcDbEntity
  8
0
 62
     7
420
 16777215
100
AcDbLine
 10
286.2314598299999
 20
-94.92755026
 30
0.0
 11
287.5319398299999
 21
-94.92755026
 31
0.0
  0
LINE
  5
209
330
335
100
AcDbEntity
  8
0
 62
     7
420
 16777215
100
AcDbLine
 10
287.5319398299999
 20
-94.92755026
 30
0.0
 11
287.5319398299999
 21
-95.62605026
 31
0.0
  0
LINE
  5
20A
330
335
100
AcDbEntity
  8
0
 62
     7
420
 16777215
100
AcDbLine
 10
287.5319398299999
 20
-95.62605026
 30
0.0
 11
286.2314598299999
 21
-95.62605026
 31
0.0
  0
LINE
  5
20B
330
335
100
AcDbEntity
  8
0
 62
     7
420
 16777215
100
AcDbLine
 10
286.2314598299999
 20
-95.62605026
 30
0.0
 11
286.2314598299999
 21
-94.92755026
 31
0.0
  0
LINE
  5
20C
330
335
100
AcDbEntity
  8
0
 62
     7
420
 16777215
100
AcDbLine
 10
286.2314598299999
 20
-97.03857248
 30
0.0
 11
287.5319398299999
 21
-97.03857248
 31
0.0
  0
LINE
  5
20D
330
335
100
AcDbEntity
  8
0
 62
     7
420
 16777215
100
AcDbLine
 10
287.5319398299999
 20
-97.03857248
 30
0.0
 11
287.5319398299999
 21
-97.73707248000001
 31
0.0
  0
LINE
  5
20E
330
335
100
AcDbEntity
  8
0
 62
     7
420
 16777215
100
AcDbLine
 10
287.5319398299999
 20
-97.73707248000001
 30
0.0
 11
286.2314598299999
 21
-97.73707248000001
 31
0.0
  0
LINE
  5
20F
330
335
100
AcDbEntity
  8
0
 62
     7
420
 16777215
100
AcDbLine
 10
286.2314598299999
 20
-97.73707248000001
 30
0.0
 11
286.2314598299999
 21
-97.03857248
 31
0.0
  0
LINE
  5
210
330
335
100
AcDbEntity
  8
0
 62
     7
420
 16777215
100
AcDbLine
 10
286.2314598299999
 20
-98.70382471
 30
0.0
 11
287.5319398299999
 21
-98.70382471
 31
0.0
  0
LINE
  5
211
330
335
100
AcDbEntity
  8
0
 62
     7
420
 16777215
100
AcDbLine
 10
287.5319398299999
 20
-98.70382471
 30
0.0
 11
287.5319398299999
 21
-99.40486471
 31
0.0
  0
LINE
  5
212
330
335
100
AcDbEntity
  8
0
 62
     7
420
 16777215
100
AcDbLine
 10
287.5319398299999
 20
-99.40486471
 30
0.0
 11
286.2314598299999
 21
-99.40486471
 31
0.0
  0
LINE
  5
213
330
335
100
AcDbEntity
  8
0
 62
     7
420
 16777215
100
AcDbLine
 10
286.2314598299999
 20
-99.40486471
 30
0.0
 11
286.2314598299999
 21
-98.70382471
 31
0.0
  0
LINE
  5
214
330
335
100
AcDbEntity
  8
0
 62
     7
420
 16777215
100
AcDbLine
 10
286.2314598299999
 20
-100.81484693
 30
0.0
 11
287.5319398299999
 21
-100.81484693
 31
0.0
  0
LINE
  5
215
330
335
100
AcDbEntity
  8
0
 62
     7
420
 16777215
100
AcDbLine
 10
287.5319398299999
 20
-100.81484693
 30
0.0
 11
287.5319398299999
 21
-101.51588693
 31
0.0
  0
LINE
  5
216
330
335
100
AcDbEntity
  8
0
 62
     7
420
 16777215
100
AcDbLine
 10
287.5319398299999
 20
-101.51588693
 30
0.0
 11
286.2314598299999
 21
-101.51588693
 31
0.0
  0
LINE
  5
217
330
335
100
AcDbEntity
  8
0
 62
     7
420
 16777215
100
AcDbLine
 10
286.2314598299999
 20
-101.51588693
 30
0.0
 11
286.2314598299999
 21
-100.81484693
 31
0.0
  0
LINE
  5
218
330
335
100
AcDbEntity
  8
0
 62
     7
420
 16777215
100
AcDbLine
 10
307.3416819299999
 20
-93.2033136
 30
0.0
 11
308.64216193
 21
-93.2033136
 31
0.0
  0
LINE
  5
219
330
335
100
AcDbEntity
  8
0
 62
     7
420
 16777215
100
AcDbLine
 10
308.64216193
 20
-93.2033136
 30
0.0
 11
308.64216193
 21
-93.90435360000001
 31
0.0
  0
LINE
  5
21A
330
335
100
AcDbEntity
  8
0
 62
     7
420
 16777215
100
AcDbLine
 10
308.64216193
 20
-93.90435360000001
 30
0.0
 11
307.3416819299999
 21
-93.90435360000001
 31
0.0
  0
LINE
  5
21B
330
335
100
AcDbEntity
  8
0
 62
     7
420
 16777215
100
AcDbLine
 10
307.3416819299999
 20
-93.90435360000001
 30
0.0
 11
307.3416819299999
 21
-93.2033136
 31
0.0
  0
LINE
  5
21C
330
335
100
AcDbEntity
  8
0
 62
     7
420
 16777215
100
AcDbLine
 10
307.3416819299999
 20
-95.31433582000001
 30
0.0
 11
308.64216193
 21
-95.31433582000001
 31
0.0
  0
LINE
  5
21D
330
335
100
AcDbEntity
  8
0
 62
     7
420
 16777215
100
AcDbLine
 10
308.64216193
 20
-95.31433582000001
 30
0.0
 11
308.64216193
 21
-96.01537582
 31
0.0
  0
LINE
  5
21E
330
335
100
AcDbEntity
  8
0
 62
     7
420
 16777215
100
AcDbLine
 10
308.64216193
 20
-96.01537582
 30
0.0
 11
307.3416819299999
 21
-96.01537582
 31
0.0
  0
LINE
  5
21F
330
335
100
AcDbEntity
  8
0
 62
     7
420
 16777215
100
AcDbLine
 10
307.3416819299999
 20
-96.01537582
 30
0.0
 11
307.3416819299999
 21
-95.31433582000001
 31
0.0
  0
LINE
  5
220
330
335
100
AcDbEntity
  8
0
 62
     7
420
 16777215
100
AcDbLine
 10
307.3416819299999
 20
-97.64831360000001
 30
0.0
 11
308.64216193
 21
-97.64831360000001
 31
0.0
  0
LINE
  5
221
330
335
100
AcDbEntity
  8
0
 62
     7
420
 16777215
100
AcDbLine
 10
308.64216193
 20
-97.64831360000001
 30
0.0
 11
308.64216193
 21
-98.3493536
 31
0.0
  0
LINE
  5
222
330
335
100
AcDbEntity
  8
0
 62
     7
420
 16777215
100
AcDbLine
 10
308.64216193
 20
-98.3493536
 30
0.0
 11
307.3416819299999
 21
-98.3493536
 31
0.0
  0
LINE
  5
223
330
335
100
AcDbEntity
  8
0
 62
     7
420
 16777215
100
AcDbLine
 10
307.3416819299999
 20
-98.3493536
 30
0.0
 11
307.3416819299999
 21
-97.64831360000001
 31
0.0
  0
LINE
  5
224
330
335
100
AcDbEntity
  8
0
 62
     7
420
 16777215
100
AcDbLine
 10
307.3416819299999
 20
-99.75933582000002
 30
0.0
 11
308.64216193
 21
-99.75933582000002
 31
0.0
  0
LINE
  5
225
330
335
100
AcDbEntity
  8
0
 62
     7
420
 16777215
100
AcDbLine
 10
308.64216193
 20
-99.75933582000002
 30
0.0
 11
308.64216193
 21
-100.46037582
 31
0.0
  0
LINE
  5
226
330
335
100
AcDbEntity
  8
0
 62
     7
420
 16777215
100
AcDbLine
 10
308.64216193
 20
-100.46037582
 30
0.0
 11
307.3416819299999
 21
-100.46037582
 31
0.0
  0
LINE
  5
227
330
335
100
AcDbEntity
  8
0
 62
     7
420
 16777215
100
AcDbLine
 10
307.3416819299999
 20
-100.46037582
 30
0.0
 11
307.3416819299999
 21
-99.75933582000002
 31
0.0
  0
LINE
  5
228
330
335
100
AcDbEntity
  8
0
 62
     7
420
 16777215
100
AcDbLine
 10
304.75316229
 20
-99.84811728000001
 30
0.0
 11
303.45268229
 21
-99.84811728000001
 31
0.0
  0
LINE
  5
229
330
335
100
AcDbEntity
  8
0
 62
     7
420
 16777215
100
AcDbLine
 10
303.45268229
 20
-99.84811728000001
 30
0.0
 11
303.45268229
 21
-99.14961728
 31
0.0
  0
LINE
  5
22A
330
335
100
AcDbEntity
  8
0
 62
     7
420
 16777215
100
AcDbLine
 10
303.45268229
 20
-99.14961728
 30
0.0
 11
304.75316229
 21
-99.14961728
 31
0.0
  0
LINE
  5
22B
330
335
100
AcDbEntity
  8
0
 62
     7
420
 16777215
100
AcDbLine
 10
304.75316229
 20
-99.14961728
 30
0.0
 11
304.75316229
 21
-99.84811728000001
 31
0.0
  0
LINE
  5
22C
330
335
100
AcDbEntity
  8
0
 62
     7
420
 16777215
100
AcDbLine
 10
304.75316229
 20
-97.73709506
 30
0.0
 11
303.45268229
 21
-97.73709506
 31
0.0
  0
LINE
  5
22D
330
335
100
AcDbEntity
  8
0
 62
     7
420
 16777215
100
AcDbLine
 10
303.45268229
 20
-97.73709506
 30
0.0
 11
303.45268229
 21
-97.03859506
 31
0.0
  0
LINE
  5
22E
330
335
100
AcDbEntity
  8
0
 62
     7
420
 16777215
100
AcDbLine
 10
303.45268229
 20
-97.03859506
 30
0.0
 11
304.75316229
 21
-97.03859506
 31
0.0
  0
LINE
  5
22F
330
335
100
AcDbEntity
  8
0
 62
     7
420
 16777215
100
AcDbLine
 10
304.75316229
 20
-97.03859506
 30
0.0
 11
304.75316229
 21
-97.73709506
 31
0.0
  0
LINE
  5
230
330
335
100
AcDbEntity
  8
0
 62
     7
420
 16777215
100
AcDbLine
 10
303.43532551
 20
-86.70373593
 30
0.0
 11
303.43532551
 21
-87.30317593000001
 31
0.0
  0
LINE
  5
231
330
335
100
AcDbEntity
  8
0
 62
     7
420
 16777215
100
AcDbLine
 10
303.43532551
 20
-87.30317593000001
 30
0.0
 11
301.88338551
 21
-87.30317593000001
 31
0.0
  0
LINE
  5
232
330
335
100
AcDbEntity
  8
0
 62
     7
420
 16777215
100
AcDbLine
 10
301.88338551
 20
-87.30317593000001
 30
0.0
 11
301.88338551
 21
-86.70373593
 31
0.0
  0
LINE
  5
233
330
335
100
AcDbEntity
  8
0
 62
     7
420
 16777215
100
AcDbLine
 10
301.88338551
 20
-86.70373593
 30
0.0
 11
303.43532551
 21
-86.70373593
 31
0.0
  0
LINE
  5
234
330
335
100
AcDbEntity
  8
0
 62
     7
420
 16777215
100
AcDbLine
 10
303.43532551
 20
-85.29262482
 30
0.0
 11
303.43532551
 21
-85.89206482
 31
0.0
  0
LINE
  5
235
330
335
100
AcDbEntity
  8
0
 62
     7
420
 16777215
100
AcDbLine
 10
303.43532551
 20
-85.89206482
 30
0.0
 11
301.88338551
 21
-85.89206482
 31
0.0
  0
LINE
  5
236
330
335
100
AcDbEntity
  8
0
 62
     7
420
 16777215
100
AcDbLine
 10
301.88338551
 20
-85.89206482
 30
0.0
 11
301.88338551
 21
-85.29262482
 31
0.0
  0
LINE
  5
237
330
335
100
AcDbEntity
  8
0
 62
     7
420
 16777215
100
AcDbLine
 10
301.88338551
 20
-85.29262482
 30
0.0
 11
303.43532551
 21
-85.29262482
 31
0.0
  0
LINE
  5
238
330
335
100
AcDbEntity
  8
0
 62
     7
420
 16777215
100
AcDbLine
 10
303.43532551
 20
-83.88151371000001
 30
0.0
 11
303.43532551
 21
-84.48095371
 31
0.0
  0
LINE
  5
239
330
335
100
AcDbEntity
  8
0
 62
     7
420
 16777215
100
AcDbLine
 10
303.43532551
 20
-84.48095371
 30
0.0
 11
301.88338551
 21
-84.48095371
 31
0.0
  0
LINE
  5
23A
330
335
100
AcDbEntity
  8
0
 62
     7
420
 16777215
100
AcDbLine
 10
301.88338551
 20
-84.48095371
 30
0.0
 11
301.88338551
 21
-83.88151371000001
 31
0.0
  0
LINE
  5
23B
330
335
100
AcDbEntity
  8
0
 62
     7
420
 16777215
100
AcDbLine
 10
301.88338551
 20
-83.88151371000001
 30
0.0
 11
303.43532551
 21
-83.88151371000001
 31
0.0
  0
LINE
  5
23C
330
335
100
AcDbEntity
  8
0
 62
     7
420
 16777215
100
AcDbLine
 10
303.43532551
 20
-82.4704026
 30
0.0
 11
303.43532551
 21
-83.0698426
 31
0.0
  0
LINE
  5
23D
330
335
100
AcDbEntity
  8
0
 62
     7
420
 16777215
100
AcDbLine
 10
303.43532551
 20
-83.0698426
 30
0.0
 11
301.88338551
 21
-83.0698426
 31
0.0
  0
LINE
  5
23E
330
335
100
AcDbEntity
  8
0
 62
     7
420
 16777215
100
AcDbLine
 10
301.88338551
 20
-83.0698426
 30
0.0
 11
301.88338551
 21
-82.4704026
 31
0.0
  0
LINE
  5
23F
330
335
100
AcDbEntity
  8
0
 62
     7
420
 16777215
100
AcDbLine
 10
301.88338551
 20
-82.4704026
 30
0.0
 11
303.43532551
 21
-82.4704026
 31
0.0
  0
LINE
  5
240
330
335
100
AcDbEntity
  8
0
 62
     7
420
 16777215
100
AcDbLine
 10
297.43528107
 20
-82.4704026
 30
0.0
 11
297.43528107
 21
-83.0698426
 31
0.0
  0
LINE
  5
241
330
335
100
AcDbEntity
  8
0
 62
     7
420
 16777215
100
AcDbLine
 10
297.43528107
 20
-83.0698426
 30
0.0
 11
295.88334107
 21
-83.0698426
 31
0.0
  0
LINE
  5
242
330
335
100
AcDbEntity
  8
0
 62
     7
420
 16777215
100
AcDbLine
 10
295.88334107
 20
-83.0698426
 30
0.0
 11
295.88334107
 21
-82.4704026
 31
0.0
  0
LINE
  5
243
330
335
100
AcDbEntity
  8
0
 62
     7
420
 16777215
100
AcDbLine
 10
295.88334107
 20
-82.4704026
 30
0.0
 11
297.43528107
 21
-82.4704026
 31
0.0
  0
LINE
  5
244
330
335
100
AcDbEntity
  8
0
 62
     7
420
 16777215
100
AcDbLine
 10
297.43528107
 20
-83.88151371000001
 30
0.0
 11
297.43528107
 21
-84.48095371
 31
0.0
  0
LINE
  5
245
330
335
100
AcDbEntity
  8
0
 62
     7
420
 16777215
100
AcDbLine
 10
297.43528107
 20
-84.48095371
 30
0.0
 11
295.88334107
 21
-84.48095371
 31
0.0
  0
LINE
  5
246
330
335
100
AcDbEntity
  8
0
 62
     7
420
 16777215
100
AcDbLine
 10
295.88334107
 20
-84.48095371
 30
0.0
 11
295.88334107
 21
-83.88151371000001
 31
0.0
  0
LINE
  5
247
330
335
100
AcDbEntity
  8
0
 62
     7
420
 16777215
100
AcDbLine
 10
295.88334107
 20
-83.88151371000001
 30
0.0
 11
297.43528107
 21
-83.88151371000001
 31
0.0
  0
LINE
  5
248
330
335
100
AcDbEntity
  8
0
 62
     7
420
 16777215
100
AcDbLine
 10
297.43528107
 20
-85.29262482
 30
0.0
 11
297.43528107
 21
-85.89206482
 31
0.0
  0
LINE
  5
249
330
335
100
AcDbEntity
  8
0
 62
     7
420
 16777215
100
AcDbLine
 10
297.43528107
 20
-85.89206482
 30
0.0
 11
295.88334107
 21
-85.89206482
 31
0.0
  0
LINE
  5
24A
330
335
100
AcDbEntity
  8
0
 62
     7
420
 16777215
100
AcDbLine
 10
295.88334107
 20
-85.89206482
 30
0.0
 11
295.88334107
 21
-85.29262482
 31
0.0
  0
LINE
  5
24B
330
335
100
AcDbEntity
  8
0
 62
     7
420
 16777215
100
AcDbLine
 10
295.88334107
 20
-85.29262482
 30
0.0
 11
297.43528107
 21
-85.29262482
 31
0.0
  0
LINE
  5
24C
330
335
100
AcDbEntity
  8
0
 62
     7
420
 16777215
100
AcDbLine
 10
297.43528107
 20
-86.70373593
 30
0.0
 11
297.43528107
 21
-87.30317593000001
 31
0.0
  0
LINE
  5
24D
330
335
100
AcDbEntity
  8
0
 62
     7
420
 16777215
100
AcDbLine
 10
297.43528107
 20
-87.30317593000001
 30
0.0
 11
295.88334107
 21
-87.30317593000001
 31
0.0
  0
LINE
  5
24E
330
335
100
AcDbEntity
  8
0
 62
     7
420
 16777215
100
AcDbLine
 10
295.88334107
 20
-87.30317593000001
 30
0.0
 11
295.88334107
 21
-86.70373593
 31
0.0
  0
LINE
  5
24F
330
335
100
AcDbEntity
  8
0
 62
     7
420
 16777215
100
AcDbLine
 10
295.88334107
 20
-86.70373593
 30
0.0
 11
297.43528107
 21
-86.70373593
 31
0.0
  0
LINE
  5
250
330
335
100
AcDbEntity
  8
0
 62
     7
420
 16777215
100
AcDbLine
 10
300.28485864
 20
-84.03788503
 30
0.0
 11
300.28485864
 21
-85.73841503
 31
0.0
  0
LINE
  5
251
330
335
100
AcDbEntity
  8
0
 62
     7
420
 16777215
100
AcDbLine
 10
300.28485864
 20
-85.73841503
 30
0.0
 11
299.0339086399999
 21
-85.73841503
 31
0.0
  0
LINE
  5
252
330
335
100
AcDbEntity
  8
0
 62
     7
420
 16777215
100
AcDbLine
 10
299.0339086399999
 20
-85.73841503
 30
0.0
 11
299.0339086399999
 21
-84.03788503
 31
0.0
  0
LINE
  5
253
330
335
100
AcDbEntity
  8
0
 62
     7
420
 16777215
100
AcDbLine
 10
299.0339086399999
 20
-84.03788503
 30
0.0
 11
300.28485864
 21
-84.03788503
 31
0.0
  0
LINE
  5
254
330
335
100
AcDbEntity
  8
0
 62
     7
420
 16777215
100
AcDbLine
 10
288.90299773
 20
-79.16433273
 30
0.0
 11
288.30355773
 21
-79.16433273
 31
0.0
  0
LINE
  5
255
330
335
100
AcDbEntity
  8
0
 62
     7
420
 16777215
100
AcDbLine
 10
288.30355773
 20
-79.16433273
 30
0.0
 11
288.30355773
 21
-78.16611273000001
 31
0.0
  0
LINE
  5
256
330
335
100
AcDbEntity
  8
0
 62
     7
420
 16777215
100
AcDbLine
 10
288.30355773
 20
-78.16611273000001
 30
0.0
 11
288.90299773
 21
-78.16611273000001
 31
0.0
  0
LINE
  5
257
330
335
100
AcDbEntity
  8
0
 62
     7
420
 16777215
100
AcDbLine
 10
288.90299773
 20
-78.16611273000001
 30
0.0
 11
288.90299773
 21
-79.16433273
 31
0.0
  0
LINE
  5
258
330
335
100
AcDbEntity
  8
0
 62
     7
420
 16777215
100
AcDbLine
 10
291.01401995
 20
-79.16433273
 30
0.0
 11
290.41457995
 21
-79.16433273
 31
0.0
  0
LINE
  5
259
330
335
100
AcDbEntity
  8
0
 62
     7
420
 16777215
100
AcDbLine
 10
290.41457995
 20
-79.16433273
 30
0.0
 11
290.41457995
 21
-78.16611273000001
 31
0.0
  0
LINE
  5
25A
330
335
100
AcDbEntity
  8
0
 62
     7
420
 16777215
100
AcDbLine
 10
290.41457995
 20
-78.16611273000001
 30
0.0
 11
291.01401995
 21
-78.16611273000001
 31
0.0
  0
LINE
  5
25B
330
335
100
AcDbEntity
  8
0
 62
     7
420
 16777215
100
AcDbLine
 10
291.01401995
 20
-78.16611273000001
 30
0.0
 11
291.01401995
 21
-79.16433273
 31
0.0
  0
LINE
  5
25C
330
335
100
AcDbEntity
  8
0
 62
     7
420
 16777215
100
AcDbLine
 10
289.95850884
 20
-76.61008050000001
 30
0.0
 11
289.35906884
 21
-76.61008050000001
 31
0.0
  0
LINE
  5
25D
330
335
100
AcDbEntity
  8
0
 62
     7
420
 16777215
100
AcDbLine
 10
289.35906884
 20
-76.61008050000001
 30
0.0
 11
289.35906884
 21
-75.6093205
 31
0.0
  0
LINE
  5
25E
330
335
100
AcDbEntity
  8
0
 62
     7
420
 16777215
100
AcDbLine
 10
289.35906884
 20
-75.6093205
 30
0.0
 11
289.95850884
 21
-75.6093205
 31
0.0
  0
LINE
  5
25F
330
335
100
AcDbEntity
  8
0
 62
     7
420
 16777215
100
AcDbLine
 10
289.95850884
 20
-75.6093205
 30
0.0
 11
289.95850884
 21
-76.61008050000001
 31
0.0
  0
LINE
  5
260
330
335
100
AcDbEntity
  8
0
 62
     7
420
 16777215
100
AcDbLine
 10
303.45265971
 20
-101.48089137
 30
0.0
 11
304.75313971
 21
-101.48089137
 31
0.0
  0
LINE
  5
261
330
335
100
AcDbEntity
  8
0
 62
     7
420
 16777215
100
AcDbLine
 10
304.75313971
 20
-101.48089137
 30
0.0
 11
304.75313971
 21
-102.18193137
 31
0.0
  0
LINE
  5
262
330
335
100
AcDbEntity
  8
0
 62
     7
420
 16777215
100
AcDbLine
 10
304.75313971
 20
-102.18193137
 30
0.0
 11
303.45265971
 21
-102.18193137
 31
0.0
  0
LINE
  5
263
330
335
100
AcDbEntity
  8
0
 62
     7
420
 16777215
100
AcDbLine
 10
303.45265971
 20
-102.18193137
 30
0.0
 11
303.45265971
 21
-101.48089137
 31
0.0
  0
LINE
  5
264
330
335
100
AcDbEntity
  8
0
 62
     7
420
 16777215
100
AcDbLine
 10
303.45265971
 20
-103.5919136
 30
0.0
 11
304.75313971
 21
-103.5919136
 31
0.0
  0
LINE
  5
265
330
335
100
AcDbEntity
  8
0
 62
     7
420
 16777215
100
AcDbLine
 10
304.75313971
 20
-103.5919136
 30
0.0
 11
304.75313971
 21
-104.2929536
 31
0.0
  0
LINE
  5
266
330
335
100
AcDbEntity
  8
0
 62
     7
420
 16777215
100
AcDbLine
 10
304.75313971
 20
-104.2929536
 30
0.0
 11
303.45265971
 21
-104.2929536
 31
0.0
  0
LINE
  5
267
330
335
100
AcDbEntity
  8
0
 62
     7
420
 16777215
100
AcDbLine
 10
303.45265971
 20
-104.2929536
 30
0.0
 11
303.45265971
 21
-103.5919136
 31
0.0
  0
ENDSEC
  0
SECTION
  2
OBJECTS
  0
DICTIONARY
  5
323
330
0
100
AcDbDictionary
281
     1
  3
ACAD_DETAILVIEWSTYLE
350
3CD
  3
ACAD_GROUP
350
324
  3
ACAD_LAYOUT
350
330
  3
ACAD_MATERIAL
350
359
  3
ACAD_MLEADERSTYLE
350
381
  3
ACAD_MLINESTYLE
350
32D
  3
ACAD_PLOTSETTINGS
350
32F
  3
ACAD_PLOTSTYLENAME
350
325
  3
ACAD_SCALELIST
350
35D
  3
ACAD_SECTIONVIEWSTYLE
350
3CE
  3
ACAD_TABLESTYLE
350
37F
  3
ACAD_VISUALSTYLE
350
340
  3
AcDbVariableDictionary
350
3C6
  3
ACDB_RECOMPOSE_DATA
350
3CA
  3
QCAD_OBJECTS
350
385
  0
SUN
  5
383
330
33F
100
AcDbSun
 90
        1
290
     0
 63
     7
421
 16777215
 40
1.0
291
     1
 91
  2455826
 92
 54000000
292
     0
 70
     2
 71
   256
280
     1
  0
DICTIONARY
  5
3CD
102
{ACAD_REACTORS
330
323
102
}
330
323
100
AcDbDictionary
281
     1
  0
DICTIONARY
  5
324
102
{ACAD_REACTORS
330
323
102
}
330
323
100
AcDbDictionary
281
     1
  0
DICTIONARY
  5
330
102
{ACAD_REACTORS
330
323
102
}
330
323
100
AcDbDictionary
281
     1
  3
Layout1
350
334
  3
Layout2
350
33C
  3
Model
350
338
  0
DICTIONARY
  5
359
102
{ACAD_REACTORS
330
323
102
}
330
323
100
AcDbDictionary
281
     1
  3
ByBlock
350
35B
  3
ByLayer
350
35A
  3
Global
350
35C
  0
DICTIONARY
  5
381
102
{ACAD_REACTORS
330
323
102
}
330
323
100
AcDbDictionary
281
     1
  3
Standard
350
382
  0
DICTIONARY
  5
32D
102
{ACAD_REACTORS
330
323
102
}
330
323
100
AcDbDictionary
281
     1
  3
Standard
350
32E
  0
DICTIONARY
  5
32F
102
{ACAD_REACTORS
330
323
102
}
330
323
100
AcDbDictionary
281
     1
  0
ACDBDICTIONARYWDFLT
  5
325
102
{ACAD_REACTORS
330
323
102
}
330
323
100
AcDbDictionary
281
     1
  3
Normal
350
326
100
AcDbDictionaryWithDefault
340
326
  0
DICTIONARY
  5
35D
102
{ACAD_REACTORS
330
323
102
}
330
323
100
AcDbDictionary
281
     1
  3
A0
350
35E
  3
A1
350
35F
  3
A2
350
360
  3
A3
350
361
  3
A4
350
362
  3
A5
350
363
  3
A6
350
364
  3
A7
350
365
  3
A8
350
366
  3
A9
350
367
  3
B0
350
368
  3
B1
350
369
  3
B2
350
36A
  3
B3
350
36B
  3
B4
350
36C
  3
B5
350
36D
  3
B6
350
36E
  3
B7
350
36F
  3
B8
350
370
  3
B9
350
371
  3
C0
350
372
  3
C1
350
373
  3
C2
350
374
  3
C3
350
375
  3
C4
350
376
  3
C5
350
377
  3
C6
350
378
  3
C7
350
379
  3
C8
350
37A
  3
C9
350
37B
  3
D0
350
37C
  3
D1
350
37D
  3
D2
350
37E
  0
DICTIONARY
  5
3CE
102
{ACAD_REACTORS
330
323
102
}
330
323
100
AcDbDictionary
281
     1
  0
DICTIONARY
  5
37F
102
{ACAD_REACTORS
330
323
102
}
330
323
100
AcDbDictionary
281
     1
  3
Standard
350
380
  0
DICTIONARY
  5
340
102
{ACAD_REACTORS
330
323
102
}
330
323
100
AcDbDictionary
281
     1
  3
2dWireframe
350
345
  3
Basic
350
348
  3
Brighten
350
34C
  3
ColorChange
350
350
  3
Conceptual
350
34A
  3
Dim
350
34B
  3
EdgeColorOff
350
353
  3
Facepattern
350
34F
  3
Flat
350
341
  3
FlatWithEdges
350
342
  3
Gouraud
350
343
  3
GouraudWithEdges
350
344
  3
Hidden
350
347
  3
JitterOff
350
351
  3
Linepattern
350
34E
  3
OverhangOff
350
352
  3
Realistic
350
349
  3
Shaded
350
358
  3
Shaded with edges
350
357
  3
Shades of Gray
350
354
  3
Sketchy
350
355
  3
Thicken
350
34D
  3
Wireframe
350
346
  3
X-Ray
350
356
  0
DICTIONARY
  5
3C6
102
{ACAD_REACTORS
330
323
102
}
330
323
100
AcDbDictionary
281
     1
  3
CANNOSCALE
350
3C7
  3
CMLEADERSTYLE
350
3CC
  3
CTABLESTYLE
350
3CB
  0
XRECORD
  5
3CA
102
{ACAD_REACTORS
330
323
102
}
330
323
100
AcDbXrecord
280
     1
 90
        1
330
380
  0
DICTIONARY
  5
385
102
{ACAD_REACTORS
330
323
102
}
330
323
100
AcDbDictionary
281
     1
  3
Grid/DisplayGrid00
350
386
  3
Grid/DisplayGrid01
350
387
  3
Grid/DisplayGrid02
350
388
  3
Grid/DisplayGrid03
350
389
  3
Grid/GridSpacingX00
350
38A
  3
Grid/GridSpacingX01
350
38B
  3
Grid/GridSpacingX02
350
38C
  3
Grid/GridSpacingX03
350
38D
  3
Grid/GridSpacingY00
350
38E
  3
Grid/GridSpacingY01
350
38F
  3
Grid/GridSpacingY02
350
390
  3
Grid/GridSpacingY03
350
391
  3
Grid/IsometricGrid00
350
392
  3
Grid/IsometricGrid01
350
393
  3
Grid/IsometricGrid02
350
394
  3
Grid/IsometricGrid03
350
395
  3
Grid/IsometricProjection00
350
396
  3
Grid/IsometricProjection01
350
397
  3
Grid/IsometricProjection02
350
398
  3
Grid/IsometricProjection03
350
399
  3
Grid/MetaGridSpacingX00
350
39A
  3
Grid/MetaGridSpacingX01
350
39B
  3
Grid/MetaGridSpacingX02
350
39C
  3
Grid/MetaGridSpacingX03
350
39D
  3
Grid/MetaGridSpacingY00
350
39E
  3
Grid/MetaGridSpacingY01
350
39F
  3
Grid/MetaGridSpacingY02
350
3A0
  3
Grid/MetaGridSpacingY03
350
3A1
  3
MultiPageSettings/Columns
350
3A2
  3
MultiPageSettings/GlueMarginsBottom
350
3A3
  3
MultiPageSettings/GlueMarginsLeft
350
3A4
  3
MultiPageSettings/GlueMarginsRight
350
3A5
  3
MultiPageSettings/GlueMarginsTop
350
3A6
  3
MultiPageSettings/PrintCropMarks
350
3A7
  3
MultiPageSettings/Rows
350
3A8
  3
PageSettings/OffsetX
350
3A9
  3
PageSettings/OffsetY
350
3AA
  3
PageSettings/PageOrientation
350
3AB
  3
PageSettings/PaperHeight
350
3AC
  3
PageSettings/PaperWidth
350
3AD
  3
PageSettings/Scale
350
3AE
  3
PageSettings/ShowPaperBorders
350
3AF
  3
UnitSettings/PaperUnit
350
3B0
  0
LAYOUT
  5
334
102
{ACAD_REACTORS
330
330
102
}
330
330
100
AcDbPlotSettings
  1

  2
none_device
  4

  6

 40
0.0
 41
0.0
 42
0.0
 43
0.0
 44
0.0
 45
0.0
 46
0.0
 47
0.0
 48
0.0
 49
0.0
140
0.0
141
0.0
142
1.0
143
1.0
 70
   688
 72
     0
 73
     0
 74
     5
  7

 75
    16
 76
     0
 77
     2
 78
   300
147
1.0
148
0.0
149
0.0
100
AcDbLayout
  1
Layout1
 70
     1
 71
     1
 10
0.0
 20
0.0
 11
12.0
 21
9.0
 12
0.0
 22
0.0
 32
0.0
 14
1.000000000000000E+20
 24
1.000000000000000E+20
 34
1.000000000000000E+20
 15
-1.000000000000000E+20
 25
-1.000000000000000E+20
 35
-1.000000000000000E+20
146
0.0
 13
0.0
 23
0.0
 33
0.0
 16
1.0
 26
0.0
 36
0.0
 17
0.0
 27
1.0
 37
0.0
 76
     0
330
331
  0
LAYOUT
  5
33C
102
{ACAD_REACTORS
330
330
102
}
330
330
100
AcDbPlotSettings
  1

  2
none_device
  4

  6

 40
0.0
 41
0.0
 42
0.0
 43
0.0
 44
0.0
 45
0.0
 46
0.0
 47
0.0
 48
0.0
 49
0.0
140
0.0
141
0.0
142
1.0
143
1.0
 70
   688
 72
     0
 73
     0
 74
     5
  7

 75
    16
 76
     0
 77
     2
 78
   300
147
1.0
148
0.0
149
0.0
100
AcDbLayout
  1
Layout2
 70
     1
 71
     2
 10
0.0
 20
0.0
 11
0.0
 21
0.0
 12
0.0
 22
0.0
 32
0.0
 14
0.0
 24
0.0
 34
0.0
 15
0.0
 25
0.0
 35
0.0
146
0.0
 13
0.0
 23
0.0
 33
0.0
 16
1.0
 26
0.0
 36
0.0
 17
0.0
 27
1.0
 37
0.0
 76
     0
330
339
  0
LAYOUT
  5
338
102
{ACAD_REACTORS
330
330
102
}
330
330
100
AcDbPlotSettings
  1

  2
none_device
  4
Letter_(8.50_x_11.00_Inches)
  6

 40
6.35
 41
6.35
 42
6.35000508
 43
6.35000508
 44
215.9
 45
279.4
 46
0.0
 47
0.0
 48
0.0
 49
0.0
140
0.0
141
0.0
142
1.0
143
1.0
 70
  1712
 72
     0
 73
     0
 74
     0
  7

 75
     0
 76
     0
 77
     2
 78
   300
147
1.0
148
0.0
149
0.0
100
AcDbLayout
  1
Model
 70
     1
 71
     0
 10
0.0
 20
0.0
 11
12.0
 21
9.0
 12
0.0
 22
0.0
 32
0.0
 14
1.000000000000000E+20
 24
1.000000000000000E+20
 34
1.000000000000000E+20
 15
-1.000000000000000E+20
 25
-1.000000000000000E+20
 35
-1.000000000000000E+20
146
0.0
 13
0.0
 23
0.0
 33
0.0
 16
1.0
 26
0.0
 36
0.0
 17
0.0
 27
1.0
 37
0.0
 76
     0
330
335
331
33F
  0
MATERIAL
  5
35B
102
{ACAD_REACTORS
330
359
102
}
330
359
100
AcDbMaterial
  1
ByBlock
 72
     1
 94
      127
  0
MATERIAL
  5
35A
102
{ACAD_REACTORS
330
359
102
}
330
359
100
AcDbMaterial
  1
ByLayer
 72
     1
 94
      127
  0
MATERIAL
  5
35C
102
{ACAD_REACTORS
330
359
102
}
330
359
100
AcDbMaterial
  1
Global
 72
     1
 94
      127
  0
MLEADERSTYLE
  5
382
102
{ACAD_REACTORS
330
381
102
}
330
381
100
AcDbMLeaderStyle
179
     2
170
     2
171
     1
172
     0
 90
        2
 40
0.0
 41
0.0
173
     1
 91
-1056964608
340
32A
 92
       -2
290
     1
 42
0.09
291
     1
 43
0.36
  3
Standard
341
0
 44
0.18
300

342
328
174
     1
178
     6
175
     1
176
     0
 93
-1056964608
 45
0.18
292
     0
297
     0
 46
0.18
343
0
 94
-1056964608
 47
1.0
 49
1.0
140
1.0
293
     1
141
0.0
294
     1
177
     0
142
1.0
295
     0
296
     0
143
0.125
271
     0
272
     9
273
     9
298
     0
  0
MLINESTYLE
  5
32E
102
{ACAD_REACTORS
330
32D
102
}
330
32D
100
AcDbMlineStyle
  2
Standard
 70
     0
  3

 62
   256
 51
90.0
 52
90.0
 71
     2
 49
0.5
 62
   256
  6
BYLAYER
 49
-0.5
 62
   256
  6
BYLAYER
  0
ACDBPLACEHOLDER
  5
326
102
{ACAD_REACTORS
330
325
102
}
330
325
  0
SCALE
  5
35E
102
{ACAD_REACTORS
330
35D
102
}
330
35D
100
AcDbScale
 70
     0
300
1:1
140
1.0
141
1.0
290
     1
  0
SCALE
  5
35F
102
{ACAD_REACTORS
330
35D
102
}
330
35D
100
AcDbScale
 70
     0
300
1:2
140
1.0
141
2.0
290
     0
  0
SCALE
  5
360
102
{ACAD_REACTORS
330
35D
102
}
330
35D
100
AcDbScale
 70
     0
300
1:4
140
1.0
141
4.0
290
     0
  0
SCALE
  5
361
102
{ACAD_REACTORS
330
35D
102
}
330
35D
100
AcDbScale
 70
     0
300
1:5
140
1.0
141
5.0
290
     0
  0
SCALE
  5
362
102
{ACAD_REACTORS
330
35D
102
}
330
35D
100
AcDbScale
 70
     0
300
1:8
140
1.0
141
8.0
290
     0
  0
SCALE
  5
363
102
{ACAD_REACTORS
330
35D
102
}
330
35D
100
AcDbScale
 70
     0
300
1:10
140
1.0
141
10.0
290
     0
  0
SCALE
  5
364
102
{ACAD_REACTORS
330
35D
102
}
330
35D
100
AcDbScale
 70
     0
300
1:16
140
1.0
141
16.0
290
     0
  0
SCALE
  5
365
102
{ACAD_REACTORS
330
35D
102
}
330
35D
100
AcDbScale
 70
     0
300
1:20
140
1.0
141
20.0
290
     0
  0
SCALE
  5
366
102
{ACAD_REACTORS
330
35D
102
}
330
35D
100
AcDbScale
 70
     0
300
1:30
140
1.0
141
30.0
290
     0
  0
SCALE
  5
367
102
{ACAD_REACTORS
330
35D
102
}
330
35D
100
AcDbScale
 70
     0
300
1:40
140
1.0
141
40.0
290
     0
  0
SCALE
  5
368
102
{ACAD_REACTORS
330
35D
102
}
330
35D
100
AcDbScale
 70
     0
300
1:50
140
1.0
141
50.0
290
     0
  0
SCALE
  5
369
102
{ACAD_REACTORS
330
35D
102
}
330
35D
100
AcDbScale
 70
     0
300
1:100
140
1.0
141
100.0
290
     0
  0
SCALE
  5
36A
102
{ACAD_REACTORS
330
35D
102
}
330
35D
100
AcDbScale
 70
     0
300
2:1
140
2.0
141
1.0
290
     0
  0
SCALE
  5
36B
102
{ACAD_REACTORS
330
35D
102
}
330
35D
100
AcDbScale
 70
     0
300
4:1
140
4.0
141
1.0
290
     0
  0
SCALE
  5
36C
102
{ACAD_REACTORS
330
35D
102
}
330
35D
100
AcDbScale
 70
     0
300
8:1
140
8.0
141
1.0
290
     0
  0
SCALE
  5
36D
102
{ACAD_REACTORS
330
35D
102
}
330
35D
100
AcDbScale
 70
     0
300
10:1
140
10.0
141
1.0
290
     0
  0
SCALE
  5
36E
102
{ACAD_REACTORS
330
35D
102
}
330
35D
100
AcDbScale
 70
     0
300
100:1
140
100.0
141
1.0
290
     0
  0
SCALE
  5
36F
102
{ACAD_REACTORS
330
35D
102
}
330
35D
100
AcDbScale
 70
     0
300
1/128" = 1'-0"
140
0.0078125
141
12.0
290
     0
  0
SCALE
  5
370
102
{ACAD_REACTORS
330
35D
102
}
330
35D
100
AcDbScale
 70
     0
300
1/64" = 1'-0"
140
0.015625
141
12.0
290
     0
  0
SCALE
  5
371
102
{ACAD_REACTORS
330
35D
102
}
330
35D
100
AcDbScale
 70
     0
300
1/32" = 1'-0"
140
0.03125
141
12.0
290
     0
  0
SCALE
  5
372
102
{ACAD_REACTORS
330
35D
102
}
330
35D
100
AcDbScale
 70
     0
300
1/16" = 1'-0"
140
0.0625
141
12.0
290
     0
  0
SCALE
  5
373
102
{ACAD_REACTORS
330
35D
102
}
330
35D
100
AcDbScale
 70
     0
300
3/32" = 1'-0"
140
0.09375
141
12.0
290
     0
  0
SCALE
  5
374
102
{ACAD_REACTORS
330
35D
102
}
330
35D
100
AcDbScale
 70
     0
300
1/8" = 1'-0"
140
0.125
141
12.0
290
     0
  0
SCALE
  5
375
102
{ACAD_REACTORS
330
35D
102
}
330
35D
100
AcDbScale
 70
     0
300
3/16" = 1'-0"
140
0.1875
141
12.0
290
     0
  0
SCALE
  5
376
102
{ACAD_REACTORS
330
35D
102
}
330
35D
100
AcDbScale
 70
     0
300
1/4" = 1'-0"
140
0.25
141
12.0
290
     0
  0
SCALE
  5
377
102
{ACAD_REACTORS
330
35D
102
}
330
35D
100
AcDbScale
 70
     0
300
3/8" = 1'-0"
140
0.375
141
12.0
290
     0
  0
SCALE
  5
378
102
{ACAD_REACTORS
330
35D
102
}
330
35D
100
AcDbScale
 70
     0
300
1/2" = 1'-0"
140
0.5
141
12.0
290
     0
  0
SCALE
  5
379
102
{ACAD_REACTORS
330
35D
102
}
330
35D
100
AcDbScale
 70
     0
300
3/4" = 1'-0"
140
0.75
141
12.0
290
     0
  0
SCALE
  5
37A
102
{ACAD_REACTORS
330
35D
102
}
330
35D
100
AcDbScale
 70
     0
300
1" = 1'-0"
140
1.0
141
12.0
290
     0
  0
SCALE
  5
37B
102
{ACAD_REACTORS
330
35D
102
}
330
35D
100
AcDbScale
 70
     0
300
1-1/2" = 1'-0"
140
1.5
141
12.0
290
     0
  0
SCALE
  5
37C
102
{ACAD_REACTORS
330
35D
102
}
330
35D
100
AcDbScale
 70
     0
300
3" = 1'-0"
140
3.0
141
12.0
290
     0
  0
SCALE
  5
37D
102
{ACAD_REACTORS
330
35D
102
}
330
35D
100
AcDbScale
 70
     0
300
6" = 1'-0"
140
6.0
141
12.0
290
     0
  0
SCALE
  5
37E
102
{ACAD_REACTORS
330
35D
102
}
330
35D
100
AcDbScale
 70
     0
300
1'-0" = 1'-0"
140
12.0
141
12.0
290
     0
  0
TABLESTYLE
  5
380
102
{ACAD_REACTORS
330
37F
102
}
102
{ACAD_XDICTIONARY
360
3C8
102
}
330
37F
100
AcDbTableStyle
  3
Standard
 70
     0
 71
     0
 40
0.06
 41
0.06
280
     0
281
     0
  7
Standard
140
0.18
170
     2
 62
     0
 63
   257
283
     0
 90
        4
 91
        0
  1

274
    -2
284
     1
 64
     0
275
    -2
285
     1
 65
     0
276
    -2
286
     1
 66
     0
277
    -2
287
     1
 67
     0
278
    -2
288
     1
 68
     0
279
    -2
289
     1
 69
     0
  7
Standard
140
0.25
170
     5
 62
     0
 63
   257
283
     0
 90
        4
 91
        0
  1

274
    -2
284
     1
 64
     0
275
    -2
285
     1
 65
     0
276
    -2
286
     1
 66
     0
277
    -2
287
     1
 67
     0
278
    -2
288
     1
 68
     0
279
    -2
289
     1
 69
     0
  7
Standard
140
0.18
170
     5
 62
     0
 63
   257
283
     0
 90
        4
 91
        0
  1

274
    -2
284
     1
 64
     0
275
    -2
285
     1
 65
     0
276
    -2
286
     1
 66
     0
277
    -2
287
     1
 67
     0
278
    -2
288
     1
 68
     0
279
    -2
289
     1
 69
     0
  0
VISUALSTYLE
  5
345
102
{ACAD_REACTORS
330
340
102
}
330
340
100
AcDbVisualStyle
  2
2dWireframe
 70
     4
177
     3
291
     0
 70
    58
 90
        0
176
     1
 90
        2
176
     1
 90
        0
176
     1
 90
        0
176
     1
 40
0.6
176
     1
 40
30.0
176
     1
 62
     7
420
 16777215
176
     1
 90
        1
176
     1
 90
        4
176
     1
 62
     7
176
     1
 62
   257
176
     1
 90
        1
176
     1
 90
        1
176
     1
 40
1.0
176
     1
 90
        0
176
     1
 62
   257
176
     1
 40
1.0
176
     1
 90
        1
176
     1
 90
        6
176
     1
 90
        2
176
     1
 62
     7
176
     1
 90
        5
176
     1
 90
        0
176
     1
 90
        0
176
     1
290
     0
176
     1
 90
        1
176
     1
 40
0.0
176
     1
 90
        0
176
     1
290
     1
176
     1
290
     1
176
     1
290
     0
176
     1
290
     0
176
     1
290
     0
176
     1
290
     0
176
     1
290
     0
176
     1
290
     0
176
     1
290
     0
176
     1
 90
       50
176
     1
 40
0.0
176
     1
 40
1.0
176
     1
 90
        0
176
     1
 62
   178
420
        0
176
     1
 90
       50
176
     1
 90
        3
176
     1
 62
     5
420
      255
176
     1
290
     0
176
     1
 90
       50
176
     1
 90
       50
176
     1
 90
       50
176
     1
290
     0
176
     1
 90
       50
176
     1
 62
   256
176
     0
 40
1.0
176
     0
 90
        2
176
     1
  1
strokes_ogs.tif
176
     1
290
     0
176
     1
 40
1.0
176
     1
 40
1.0
176
     1
  0
VISUALSTYLE
  5
348
102
{ACAD_REACTORS
330
340
102
}
330
340
100
AcDbVisualStyle
  2
Basic
 70
     7
177
     3
291
     1
 70
    58
 90
        1
176
     1
 90
        0
176
     1
 90
        1
176
     1
 90
        0
176
     1
 40
0.6
176
     1
 40
30.0
176
     1
 62
     7
420
 16777215
176
     1
 90
        0
176
     1
 90
        4
176
     1
 62
     7
176
     1
 62
   257
176
     1
 90
        1
176
     1
 90
        1
176
     1
 40
1.0
176
     1
 90
        8
176
     1
 62
     7
176
     1
 40
1.0
176
     1
 90
        1
176
     1
 90
        6
176
     1
 90
        2
176
     1
 62
     7
176
     1
 90
        5
176
     1
 90
        0
176
     1
 90
        0
176
     1
290
     0
176
     1
 90
        1
176
     1
 40
0.0
176
     1
 90
        0
176
     1
290
     0
176
     1
290
     1
176
     1
290
     1
176
     1
290
     0
176
     1
290
     0
176
     1
290
     0
176
     1
290
     0
176
     1
290
     0
176
     1
290
     0
176
     1
 90
       50
176
     1
 40
0.0
176
     1
 40
1.0
176
     1
 90
        0
176
     1
 62
   178
420
        0
176
     1
 90
       50
176
     1
 90
        3
176
     1
 62
     5
420
      255
176
     1
290
     0
176
     1
 90
       50
176
     1
 90
       50
176
     1
 90
       50
176
     1
290
     0
176
     1
 90
       50
176
     1
 62
   256
176
     0
 40
1.0
176
     0
 90
        2
176
     1
  1
strokes_ogs.tif
176
     1
290
     0
176
     1
 40
1.0
176
     1
 40
1.0
176
     1
  0
VISUALSTYLE
  5
34C
102
{ACAD_REACTORS
330
340
102
}
330
340
100
AcDbVisualStyle
  2
Brighten
 70
    12
177
     3
291
     1
 70
    58
 90
        2
176
     1
 90
        2
176
     1
 90
        0
176
     1
 90
        0
176
     1
 40
0.6
176
     1
 40
30.0
176
     1
 62
     7
420
 16777215
176
     1
 90
        1
176
     1
 90
        4
176
     1
 62
     7
176
     1
 62
   257
176
     1
 90
        1
176
     1
 90
        1
176
     1
 40
1.0
176
     1
 90
        8
176
     1
 62
     7
176
     1
 40
1.0
176
     1
 90
        1
176
     1
 90
        6
176
     1
 90
        2
176
     1
 62
     7
176
     1
 90
        5
176
     1
 90
        0
176
     1
 90
        0
176
     1
290
     0
176
     1
 90
        1
176
     1
 40
50.0
176
     1
 90
        0
176
     1
290
     0
176
     1
290
     1
176
     1
290
     1
176
     1
290
     0
176
     1
290
     0
176
     1
290
     0
176
     1
290
     0
176
     1
290
     0
176
     1
290
     0
176
     1
 90
       50
176
     1
 40
0.0
176
     1
 40
1.0
176
     1
 90
        0
176
     1
 62
   178
420
        0
176
     1
 90
       50
176
     1
 90
        3
176
     1
 62
     5
420
      255
176
     1
290
     0
176
     1
 90
       50
176
     1
 90
       50
176
     1
 90
       50
176
     1
290
     0
176
     1
 90
       50
176
     1
 62
   256
176
     0
 40
1.0
176
     0
 90
        2
176
     1
  1
strokes_ogs.tif
176
     1
290
     0
176
     1
 40
1.0
176
     1
 40
1.0
176
     1
  0
VISUALSTYLE
  5
350
102
{ACAD_REACTORS
330
340
102
}
330
340
100
AcDbVisualStyle
  2
ColorChange
 70
    16
177
     3
291
     1
 70
    58
 90
        2
176
     1
 90
        2
176
     1
 90
        3
176
     1
 90
        0
176
     1
 40
0.6
176
     1
 40
30.0
176
     1
 62
     8
420
  8421504
176
     1
 90
        1
176
     1
 90
        4
176
     1
 62
     7
176
     1
 62
   257
176
     1
 90
        1
176
     1
 90
        1
176
     1
 40
1.0
176
     1
 90
        8
176
     1
 62
     8
420
  8421504
176
     1
 40
1.0
176
     1
 90
        1
176
     1
 90
        6
176
     1
 90
        2
176
     1
 62
     7
176
     1
 90
        5
176
     1
 90
        0
176
     1
 90
        0
176
     1
290
     0
176
     1
 90
        1
176
     1
 40
0.0
176
     1
 90
        0
176
     1
290
     0
176
     1
290
     1
176
     1
290
     1
176
     1
290
     0
176
     1
290
     0
176
     1
290
     0
176
     1
290
     0
176
     1
290
     0
176
     1
290
     0
176
     1
 90
       50
176
     1
 40
0.0
176
     1
 40
1.0
176
     1
 90
        0
176
     1
 62
   178
420
        0
176
     1
 90
       50
176
     1
 90
        3
176
     1
 62
     5
420
      255
176
     1
290
     0
176
     1
 90
       50
176
     1
 90
       50
176
     1
 90
       50
176
     1
290
     0
176
     1
 90
       50
176
     1
 62
   256
176
     0
 40
1.0
176
     0
 90
        2
176
     1
  1
strokes_ogs.tif
176
     1
290
     0
176
     1
 40
1.0
176
     1
 40
1.0
176
     1
  0
VISUALSTYLE
  5
34A
102
{ACAD_REACTORS
330
340
102
}
330
340
100
AcDbVisualStyle
  2
Conceptual
 70
     9
177
     3
291
     0
 70
    58
 90
        3
176
     1
 90
        2
176
     1
 90
        0
176
     1
 90
        0
176
     1
 40
0.6
176
     1
 40
30.0
176
     1
 62
     7
420
 16777215
176
     1
 90
        2
176
     1
 90
        2
176
     1
 62
     7
176
     1
 62
   257
176
     1
 90
        1
176
     1
 90
        1
176
     1
 40
179.0
176
     1
 90
        8
176
     1
 62
     7
176
     1
 40
1.0
176
     1
 90
        1
176
     1
 90
        6
176
     1
 90
        2
176
     1
 62
     7
176
     1
 90
        3
176
     1
 90
        0
176
     1
 90
        0
176
     1
290
     0
176
     1
 90
        1
176
     1
 40
0.0
176
     1
 90
        0
176
     1
290
     0
176
     1
290
     1
176
     1
290
     1
176
     1
290
     0
176
     1
290
     0
176
     1
290
     0
176
     1
290
     0
176
     1
290
     0
176
     1
290
     0
176
     1
 90
       50
176
     1
 40
0.0
176
     1
 40
1.0
176
     1
 90
        0
176
     1
 62
   178
420
        0
176
     1
 90
       50
176
     1
 90
        3
176
     1
 62
     5
420
      255
176
     1
290
     0
176
     1
 90
       50
176
     1
 90
       50
176
     1
 90
       50
176
     1
290
     0
176
     1
 90
       50
176
     1
 62
   256
176
     0
 40
1.0
176
     0
 90
        2
176
     1
  1
strokes_ogs.tif
176
     1
290
     0
176
     1
 40
1.0
176
     1
 40
1.0
176
     1
  0
VISUALSTYLE
  5
34B
102
{ACAD_REACTORS
330
340
102
}
330
340
100
AcDbVisualStyle
  2
Dim
 70
    11
177
     3
291
     1
 70
    58
 90
        2
176
     1
 90
        2
176
     1
 90
        0
176
     1
 90
        0
176
     1
 40
0.6
176
     1
 40
30.0
176
     1
 62
     7
420
 16777215
176
     1
 90
        1
176
     1
 90
        4
176
     1
 62
     7
176
     1
 62
   257
176
     1
 90
        1
176
     1
 90
        1
176
     1
 40
1.0
176
     1
 90
        8
176
     1
 62
     7
176
     1
 40
1.0
176
     1
 90
        1
176
     1
 90
        6
176
     1
 90
        2
176
     1
 62
     7
176
     1
 90
        5
176
     1
 90
        0
176
     1
 90
        0
176
     1
290
     0
176
     1
 90
        1
176
     1
 40
-50.0
176
     1
 90
        0
176
     1
290
     0
176
     1
290
     1
176
     1
290
     1
176
     1
290
     0
176
     1
290
     0
176
     1
290
     0
176
     1
290
     0
176
     1
290
     0
176
     1
290
     0
176
     1
 90
       50
176
     1
 40
0.0
176
     1
 40
1.0
176
     1
 90
        0
176
     1
 62
   178
420
        0
176
     1
 90
       50
176
     1
 90
        3
176
     1
 62
     5
420
      255
176
     1
290
     0
176
     1
 90
       50
176
     1
 90
       50
176
     1
 90
       50
176
     1
290
     0
176
     1
 90
       50
176
     1
 62
   256
176
     0
 40
1.0
176
     0
 90
        2
176
     1
  1
strokes_ogs.tif
176
     1
290
     0
176
     1
 40
1.0
176
     1
 40
1.0
176
     1
  0
VISUALSTYLE
  5
353
102
{ACAD_REACTORS
330
340
102
}
330
340
100
AcDbVisualStyle
  2
EdgeColorOff
 70
    22
177
     3
291
     1
 70
    58
 90
        2
176
     0
 90
        2
176
     0
 90
        0
176
     0
 90
        0
176
     0
 40
0.6
176
     0
 40
30.0
176
     0
 62
     7
420
 16777215
176
     0
 90
        1
176
     0
 90
        4
176
     0
 62
     7
176
     0
 62
   257
176
     0
 90
        1
176
     0
 90
        1
176
     0
 40
1.0
176
     0
 90
        8
176
     2
 62
     7
176
     0
 40
1.0
176
     0
 90
        1
176
     0
 90
        6
176
     0
 90
        2
176
     0
 62
     7
176
     0
 90
        5
176
     0
 90
        0
176
     0
 90
        0
176
     0
290
     0
176
     0
 90
        1
176
     0
 40
0.0
176
     0
 90
        0
176
     0
290
     0
176
     0
290
     1
176
     0
290
     1
176
     0
290
     0
176
     0
290
     0
176
     0
290
     0
176
     0
290
     0
176
     0
290
     0
176
     0
290
     0
176
     0
 90
       50
176
     0
 40
0.0
176
     0
 40
1.0
176
     0
 90
        0
176
     0
 62
   178
420
        0
176
     0
 90
       50
176
     0
 90
        3
176
     0
 62
     5
420
      255
176
     0
290
     0
176
     0
 90
       50
176
     0
 90
       50
176
     0
 90
       50
176
     0
290
     0
176
     0
 90
       50
176
     0
 62
   256
176
     0
 40
1.0
176
     0
 90
        2
176
     0
  1
strokes_ogs.tif
176
     0
290
     0
176
     0
 40
1.0
176
     0
 40
1.0
176
     0
  0
VISUALSTYLE
  5
34F
102
{ACAD_REACTORS
330
340
102
}
330
340
100
AcDbVisualStyle
  2
Facepattern
 70
    15
177
     3
291
     1
 70
    58
 90
        2
176
     1
 90
        2
176
     1
 90
        0
176
     1
 90
        0
176
     1
 40
0.6
176
     1
 40
30.0
176
     1
 62
     7
420
 16777215
176
     1
 90
        1
176
     1
 90
        4
176
     1
 62
     7
176
     1
 62
   257
176
     1
 90
        1
176
     1
 90
        1
176
     1
 40
1.0
176
     1
 90
        8
176
     1
 62
     7
176
     1
 40
1.0
176
     1
 90
        1
176
     1
 90
        6
176
     1
 90
        2
176
     1
 62
     7
176
     1
 90
        5
176
     1
 90
        0
176
     1
 90
        0
176
     1
290
     0
176
     1
 90
        1
176
     1
 40
0.0
176
     1
 90
        0
176
     1
290
     0
176
     1
290
     1
176
     1
290
     1
176
     1
290
     0
176
     1
290
     0
176
     1
290
     0
176
     1
290
     0
176
     1
290
     0
176
     1
290
     0
176
     1
 90
       50
176
     1
 40
0.0
176
     1
 40
1.0
176
     1
 90
        0
176
     1
 62
   178
420
        0
176
     1
 90
       50
176
     1
 90
        3
176
     1
 62
     5
420
      255
176
     1
290
     0
176
     1
 90
       50
176
     1
 90
       50
176
     1
 90
       50
176
     1
290
     0
176
     1
 90
       50
176
     1
 62
   256
176
     0
 40
1.0
176
     0
 90
        2
176
     1
  1
strokes_ogs.tif
176
     1
290
     0
176
     1
 40
1.0
176
     1
 40
1.0
176
     1
  0
VISUALSTYLE
  5
341
102
{ACAD_REACTORS
330
340
102
}
330
340
100
AcDbVisualStyle
  2
Flat
 70
     0
177
     3
291
     1
 70
    58
 90
        2
176
     1
 90
        1
176
     1
 90
        1
176
     1
 90
        2
176
     1
 40
0.6
176
     1
 40
30.0
176
     1
 62
     7
420
 16777215
176
     1
 90
        0
176
     1
 90
        0
176
     1
 62
     7
176
     1
 62
   257
176
     1
 90
        1
176
     1
 90
        1
176
     1
 40
1.0
176
     1
 90
        8
176
     1
 62
     7
176
     1
 40
1.0
176
     1
 90
        1
176
     1
 90
        6
176
     1
 90
        2
176
     1
 62
     7
176
     1
 90
        5
176
     1
 90
        0
176
     1
 90
        0
176
     1
290
     0
176
     1
 90
       13
176
     1
 40
0.0
176
     1
 90
        0
176
     1
290
     0
176
     1
290
     1
176
     1
290
     1
176
     1
290
     0
176
     1
290
     0
176
     1
290
     0
176
     1
290
     0
176
     1
290
     0
176
     1
290
     0
176
     1
 90
       50
176
     1
 40
0.0
176
     1
 40
1.0
176
     1
 90
        0
176
     1
 62
   178
420
        0
176
     1
 90
       50
176
     1
 90
        3
176
     1
 62
     5
420
      255
176
     1
290
     0
176
     1
 90
       50
176
     1
 90
       50
176
     1
 90
       50
176
     1
290
     0
176
     1
 90
       50
176
     1
 62
   256
176
     0
 40
1.0
176
     0
 90
        2
176
     1
  1
strokes_ogs.tif
176
     1
290
     0
176
     1
 40
1.0
176
     1
 40
1.0
176
     1
  0
VISUALSTYLE
  5
342
102
{ACAD_REACTORS
330
340
102
}
330
340
100
AcDbVisualStyle
  2
FlatWithEdges
 70
     1
177
     3
291
     1
 70
    58
 90
        2
176
     1
 90
        1
176
     1
 90
        1
176
     1
 90
        2
176
     1
 40
0.6
176
     1
 40
30.0
176
     1
 62
     7
420
 16777215
176
     1
 90
        1
176
     1
 90
        0
176
     1
 62
     7
176
     1
 62
   257
176
     1
 90
        1
176
     1
 90
        1
176
     1
 40
1.0
176
     1
 90
        0
176
     1
 62
   257
176
     1
 40
1.0
176
     1
 90
        1
176
     1
 90
        6
176
     1
 90
        2
176
     1
 62
     7
176
     1
 90
        5
176
     1
 90
        0
176
     1
 90
        0
176
     1
290
     0
176
     1
 90
       13
176
     1
 40
0.0
176
     1
 90
        0
176
     1
290
     0
176
     1
290
     1
176
     1
290
     1
176
     1
290
     0
176
     1
290
     0
176
     1
290
     0
176
     1
290
     0
176
     1
290
     0
176
     1
290
     0
176
     1
 90
       50
176
     1
 40
0.0
176
     1
 40
1.0
176
     1
 90
        0
176
     1
 62
   178
420
        0
176
     1
 90
       50
176
     1
 90
        3
176
     1
 62
     5
420
      255
176
     1
290
     0
176
     1
 90
       50
176
     1
 90
       50
176
     1
 90
       50
176
     1
290
     0
176
     1
 90
       50
176
     1
 62
   256
176
     0
 40
1.0
176
     0
 90
        2
176
     1
  1
strokes_ogs.tif
176
     1
290
     0
176
     1
 40
1.0
176
     1
 40
1.0
176
     1
  0
VISUALSTYLE
  5
343
102
{ACAD_REACTORS
330
340
102
}
330
340
100
AcDbVisualStyle
  2
Gouraud
 70
     2
177
     3
291
     1
 70
    58
 90
        2
176
     1
 90
        2
176
     1
 90
        1
176
     1
 90
        2
176
     1
 40
0.6
176
     1
 40
30.0
176
     1
 62
     7
420
 16777215
176
     1
 90
        0
176
     1
 90
        0
176
     1
 62
     7
176
     1
 62
   257
176
     1
 90
        1
176
     1
 90
        1
176
     1
 40
1.0
176
     1
 90
        0
176
     1
 62
     7
176
     1
 40
1.0
176
     1
 90
        1
176
     1
 90
        6
176
     1
 90
        2
176
     1
 62
     7
176
     1
 90
        5
176
     1
 90
        0
176
     1
 90
        0
176
     1
290
     0
176
     1
 90
       13
176
     1
 40
0.0
176
     1
 90
        0
176
     1
290
     0
176
     1
290
     1
176
     1
290
     1
176
     1
290
     0
176
     1
290
     0
176
     1
290
     0
176
     1
290
     0
176
     1
290
     0
176
     1
290
     0
176
     1
 90
       50
176
     1
 40
0.0
176
     1
 40
1.0
176
     1
 90
        0
176
     1
 62
   178
420
        0
176
     1
 90
       50
176
     1
 90
        3
176
     1
 62
     5
420
      255
176
     1
290
     0
176
     1
 90
       50
176
     1
 90
       50
176
     1
 90
       50
176
     1
290
     0
176
     1
 90
       50
176
     1
 62
   256
176
     0
 40
1.0
176
     0
 90
        2
176
     1
  1
strokes_ogs.tif
176
     1
290
     0
176
     1
 40
1.0
176
     1
 40
1.0
176
     1
  0
VISUALSTYLE
  5
344
102
{ACAD_REACTORS
330
340
102
}
330
340
100
AcDbVisualStyle
  2
GouraudWithEdges
 70
     3
177
     3
291
     1
 70
    58
 90
        2
176
     1
 90
        2
176
     1
 90
        1
176
     1
 90
        2
176
     1
 40
0.6
176
     1
 40
30.0
176
     1
 62
     7
420
 16777215
176
     1
 90
        1
176
     1
 90
        0
176
     1
 62
     7
176
     1
 62
   257
176
     1
 90
        1
176
     1
 90
        1
176
     1
 40
1.0
176
     1
 90
        0
176
     1
 62
   257
176
     1
 40
1.0
176
     1
 90
        1
176
     1
 90
        6
176
     1
 90
        2
176
     1
 62
     7
176
     1
 90
        5
176
     1
 90
        0
176
     1
 90
        0
176
     1
290
     0
176
     1
 90
       13
176
     1
 40
0.0
176
     1
 90
        0
176
     1
290
     0
176
     1
290
     1
176
     1
290
     1
176
     1
290
     0
176
     1
290
     0
176
     1
290
     0
176
     1
290
     0
176
     1
290
     0
176
     1
290
     0
176
     1
 90
       50
176
     1
 40
0.0
176
     1
 40
1.0
176
     1
 90
        0
176
     1
 62
   178
420
        0
176
     1
 90
       50
176
     1
 90
        3
176
     1
 62
     5
420
      255
176
     1
290
     0
176
     1
 90
       50
176
     1
 90
       50
176
     1
 90
       50
176
     1
290
     0
176
     1
 90
       50
176
     1
 62
   256
176
     0
 40
1.0
176
     0
 90
        2
176
     1
  1
strokes_ogs.tif
176
     1
290
     0
176
     1
 40
1.0
176
     1
 40
1.0
176
     1
  0
VISUALSTYLE
  5
347
102
{ACAD_REACTORS
330
340
102
}
330
340
100
AcDbVisualStyle
  2
Hidden
 70
     6
177
     3
291
     0
 70
    58
 90
        1
176
     1
 90
        2
176
     1
 90
        2
176
     1
 90
        0
176
     1
 40
0.6
176
     1
 40
30.0
176
     1
 62
     7
420
 16777215
176
     1
 90
        2
176
     1
 90
        2
176
     1
 62
     7
176
     1
 62
   257
176
     1
 90
        2
176
     1
 90
        1
176
     1
 40
40.0
176
     1
 90
        0
176
     1
 62
   257
176
     1
 40
1.0
176
     1
 90
        1
176
     1
 90
        6
176
     1
 90
        2
176
     1
 62
     7
176
     1
 90
        3
176
     1
 90
        0
176
     1
 90
        0
176
     1
290
     0
176
     1
 90
        1
176
     1
 40
0.0
176
     1
 90
        0
176
     1
290
     0
176
     1
290
     1
176
     1
290
     1
176
     1
290
     0
176
     1
290
     0
176
     1
290
     0
176
     1
290
     0
176
     1
290
     0
176
     1
290
     0
176
     1
 90
       50
176
     1
 40
0.0
176
     1
 40
1.0
176
     1
 90
        0
176
     1
 62
   178
420
        0
176
     1
 90
       50
176
     1
 90
        3
176
     1
 62
     5
420
      255
176
     1
290
     0
176
     1
 90
       50
176
     1
 90
       50
176
     1
 90
       50
176
     1
290
     0
176
     1
 90
       50
176
     1
 62
   256
176
     0
 40
1.0
176
     0
 90
        2
176
     1
  1
strokes_ogs.tif
176
     1
290
     0
176
     1
 40
1.0
176
     1
 40
1.0
176
     1
  0
VISUALSTYLE
  5
351
102
{ACAD_REACTORS
330
340
102
}
330
340
100
AcDbVisualStyle
  2
JitterOff
 70
    20
177
     3
291
     1
 70
    58
 90
        2
176
     0
 90
        2
176
     0
 90
        0
176
     0
 90
        0
176
     0
 40
0.6
176
     0
 40
30.0
176
     0
 62
     7
420
 16777215
176
     0
 90
        1
176
     0
 90
        4
176
     0
 62
     7
176
     0
 62
   257
176
     0
 90
        1
176
     0
 90
        1
176
     0
 40
1.0
176
     0
 90
       10
176
     2
 62
     7
176
     0
 40
1.0
176
     0
 90
        1
176
     0
 90
        6
176
     0
 90
        2
176
     0
 62
     7
176
     0
 90
        5
176
     0
 90
        0
176
     0
 90
        0
176
     0
290
     0
176
     0
 90
        1
176
     0
 40
0.0
176
     0
 90
        0
176
     0
290
     0
176
     0
290
     1
176
     0
290
     1
176
     0
290
     0
176
     0
290
     0
176
     0
290
     0
176
     0
290
     0
176
     0
290
     0
176
     0
290
     0
176
     0
 90
       50
176
     0
 40
0.0
176
     0
 40
1.0
176
     0
 90
        0
176
     0
 62
   178
420
        0
176
     0
 90
       50
176
     0
 90
        3
176
     0
 62
     5
420
      255
176
     0
290
     0
176
     0
 90
       50
176
     0
 90
       50
176
     0
 90
       50
176
     0
290
     0
176
     0
 90
       50
176
     0
 62
   256
176
     0
 40
1.0
176
     0
 90
        2
176
     0
  1
strokes_ogs.tif
176
     0
290
     0
176
     0
 40
1.0
176
     0
 40
1.0
176
     0
  0
VISUALSTYLE
  5
34E
102
{ACAD_REACTORS
330
340
102
}
330
340
100
AcDbVisualStyle
  2
Linepattern
 70
    14
177
     3
291
     1
 70
    58
 90
        2
176
     1
 90
        2
176
     1
 90
        0
176
     1
 90
        0
176
     1
 40
0.6
176
     1
 40
30.0
176
     1
 62
     7
420
 16777215
176
     1
 90
        1
176
     1
 90
        4
176
     1
 62
     7
176
     1
 62
   257
176
     1
 90
        7
176
     1
 90
        7
176
     1
 40
1.0
176
     1
 90
        8
176
     1
 62
     7
176
     1
 40
1.0
176
     1
 90
        1
176
     1
 90
        6
176
     1
 90
        2
176
     1
 62
     7
176
     1
 90
        5
176
     1
 90
        0
176
     1
 90
        0
176
     1
290
     0
176
     1
 90
        1
176
     1
 40
0.0
176
     1
 90
        0
176
     1
290
     0
176
     1
290
     1
176
     1
290
     1
176
     1
290
     0
176
     1
290
     0
176
     1
290
     0
176
     1
290
     0
176
     1
290
     0
176
     1
290
     0
176
     1
 90
       50
176
     1
 40
0.0
176
     1
 40
1.0
176
     1
 90
        0
176
     1
 62
   178
420
        0
176
     1
 90
       50
176
     1
 90
        3
176
     1
 62
     5
420
      255
176
     1
290
     0
176
     1
 90
       50
176
     1
 90
       50
176
     1
 90
       50
176
     1
290
     0
176
     1
 90
       50
176
     1
 62
   256
176
     0
 40
1.0
176
     0
 90
        2
176
     1
  1
strokes_ogs.tif
176
     1
290
     0
176
     1
 40
1.0
176
     1
 40
1.0
176
     1
  0
VISUALSTYLE
  5
352
102
{ACAD_REACTORS
330
340
102
}
330
340
100
AcDbVisualStyle
  2
OverhangOff
 70
    21
177
     3
291
     1
 70
    58
 90
        2
176
     0
 90
        2
176
     0
 90
        0
176
     0
 90
        0
176
     0
 40
0.6
176
     0
 40
30.0
176
     0
 62
     7
420
 16777215
176
     0
 90
        1
176
     0
 90
        4
176
     0
 62
     7
176
     0
 62
   257
176
     0
 90
        1
176
     0
 90
        1
176
     0
 40
1.0
176
     0
 90
        9
176
     2
 62
     7
176
     0
 40
1.0
176
     0
 90
        1
176
     0
 90
        6
176
     0
 90
        2
176
     0
 62
     7
176
     0
 90
        5
176
     0
 90
        0
176
     0
 90
        0
176
     0
290
     0
176
     0
 90
        1
176
     0
 40
0.0
176
     0
 90
        0
176
     0
290
     0
176
     0
290
     1
176
     0
290
     1
176
     0
290
     0
176
     0
290
     0
176
     0
290
     0
176
     0
290
     0
176
     0
290
     0
176
     0
290
     0
176
     0
 90
       50
176
     0
 40
0.0
176
     0
 40
1.0
176
     0
 90
        0
176
     0
 62
   178
420
        0
176
     0
 90
       50
176
     0
 90
        3
176
     0
 62
     5
420
      255
176
     0
290
     0
176
     0
 90
       50
176
     0
 90
       50
176
     0
 90
       50
176
     0
290
     0
176
     0
 90
       50
176
     0
 62
   256
176
     0
 40
1.0
176
     0
 90
        2
176
     0
  1
strokes_ogs.tif
176
     0
290
     0
176
     0
 40
1.0
176
     0
 40
1.0
176
     0
  0
VISUALSTYLE
  5
349
102
{ACAD_REACTORS
330
340
102
}
330
340
100
AcDbVisualStyle
  2
Realistic
 70
     8
177
     3
291
     0
 70
    58
 90
        2
176
     1
 90
        3
176
     1
 90
        0
176
     1
 90
        2
176
     1
 40
0.6
176
     1
 40
30.0
176
     1
 62
     7
420
 16777215
176
     1
 90
        0
176
     1
 90
        0
176
     1
 62
     7
176
     1
 62
   257
176
     1
 90
        1
176
     1
 90
        1
176
     1
 40
1.0
176
     1
 90
        8
176
     1
 62
   257
176
     1
 40
1.0
176
     1
 90
        1
176
     1
 90
        6
176
     1
 90
        2
176
     1
 62
     7
176
     1
 90
        3
176
     1
 90
        0
176
     1
 90
        0
176
     1
290
     0
176
     1
 90
       13
176
     1
 40
0.0
176
     1
 90
        0
176
     1
290
     0
176
     1
290
     1
176
     1
290
     1
176
     1
290
     0
176
     1
290
     0
176
     1
290
     0
176
     1
290
     0
176
     1
290
     0
176
     1
290
     0
176
     1
 90
       50
176
     1
 40
0.0
176
     1
 40
1.0
176
     1
 90
        0
176
     1
 62
   178
420
        0
176
     1
 90
       50
176
     1
 90
        3
176
     1
 62
     5
420
      255
176
     1
290
     0
176
     1
 90
       50
176
     1
 90
       50
176
     1
 90
       50
176
     1
290
     0
176
     1
 90
       50
176
     1
 62
   256
176
     0
 40
1.0
176
     0
 90
        2
176
     1
  1
strokes_ogs.tif
176
     1
290
     0
176
     1
 40
1.0
176
     1
 40
1.0
176
     1
  0
VISUALSTYLE
  5
358
102
{ACAD_REACTORS
330
340
102
}
330
340
100
AcDbVisualStyle
  2
Shaded
 70
    27
177
     3
291
     0
 70
    58
 90
        2
176
     1
 90
        2
176
     1
 90
        1
176
     1
 90
        2
176
     1
 40
0.6
176
     1
 40
30.0
176
     1
 62
     7
420
 16777215
176
     1
 90
        0
176
     1
 90
        4
176
     1
 62
     7
176
     1
 62
   257
176
     1
 90
        1
176
     1
 90
        1
176
     1
 40
1.0
176
     1
 90
        8
176
     1
 62
   257
176
     1
 40
1.0
176
     1
 90
        1
176
     1
 90
        6
176
     1
 90
        2
176
     1
 62
     8
420
  7895160
176
     1
 90
        3
176
     1
 90
        0
176
     1
 90
        0
176
     1
290
     0
176
     1
 90
        5
176
     1
 40
0.0
176
     1
 90
        0
176
     1
290
     0
176
     1
290
     1
176
     1
290
     1
176
     1
290
     0
176
     1
290
     0
176
     1
290
     0
176
     1
290
     0
176
     1
290
     0
176
     1
290
     0
176
     1
 90
       50
176
     1
 40
0.0
176
     1
 40
1.0
176
     1
 90
        0
176
     1
 62
   178
420
        0
176
     1
 90
       50
176
     1
 90
        3
176
     1
 62
     5
420
      255
176
     1
290
     0
176
     1
 90
       50
176
     1
 90
       50
176
     1
 90
       50
176
     1
290
     0
176
     1
 90
       50
176
     1
 62
   256
176
     0
 40
1.0
176
     0
 90
        2
176
     1
  1
strokes_ogs.tif
176
     1
290
     0
176
     1
 40
1.0
176
     1
 40
1.0
176
     1
  0
VISUALSTYLE
  5
357
102
{ACAD_REACTORS
330
340
102
}
330
340
100
AcDbVisualStyle
  2
Shaded with edges
 70
    26
177
     3
291
     0
 70
    58
 90
        2
176
     1
 90
        2
176
     1
 90
        1
176
     1
 90
        2
176
     1
 40
0.6
176
     1
 40
30.0
176
     1
 62
     7
420
 16777215
176
     1
 90
        1
176
     1
 90
       10
176
     1
 62
     7
176
     1
 62
   257
176
     1
 90
        2
176
     1
 90
        1
176
     1
 40
1.0
176
     1
 90
        8
176
     1
 62
   257
176
     1
 40
1.0
176
     1
 90
        1
176
     1
 90
        6
176
     1
 90
        2
176
     1
 62
     7
176
     1
 90
        3
176
     1
 90
        0
176
     1
 90
        0
176
     1
290
     0
176
     1
 90
        5
176
     1
 40
0.0
176
     1
 90
        0
176
     1
290
     0
176
     1
290
     1
176
     1
290
     1
176
     1
290
     0
176
     1
290
     0
176
     1
290
     0
176
     1
290
     0
176
     1
290
     0
176
     1
290
     0
176
     1
 90
       50
176
     1
 40
0.0
176
     1
 40
1.0
176
     1
 90
        0
176
     1
 62
   178
420
        0
176
     1
 90
       50
176
     1
 90
        3
176
     1
 62
     5
420
      255
176
     1
290
     0
176
     1
 90
       50
176
     1
 90
       50
176
     1
 90
       50
176
     1
290
     0
176
     1
 90
       50
176
     1
 62
   256
176
     0
 40
1.0
176
     0
 90
        2
176
     1
  1
strokes_ogs.tif
176
     1
290
     0
176
     1
 40
1.0
176
     1
 40
1.0
176
     1
  0
VISUALSTYLE
  5
354
102
{ACAD_REACTORS
330
340
102
}
330
340
100
AcDbVisualStyle
  2
Shades of Gray
 70
    23
177
     3
291
     0
 70
    58
 90
        2
176
     1
 90
        2
176
     1
 90
        3
176
     1
 90
        0
176
     1
 40
0.6
176
     1
 40
30.0
176
     1
 62
     7
420
 16777215
176
     1
 90
        2
176
     1
 90
        2
176
     1
 62
     7
176
     1
 62
     7
176
     1
 90
        1
176
     1
 90
        1
176
     1
 40
40.0
176
     1
 90
        8
176
     1
 62
     7
176
     1
 40
1.0
176
     1
 90
        1
176
     1
 90
        6
176
     1
 90
        2
176
     1
 62
     7
176
     1
 90
        3
176
     1
 90
        0
176
     1
 90
        0
176
     1
290
     0
176
     1
 90
        1
176
     1
 40
0.0
176
     1
 90
        0
176
     1
290
     0
176
     1
290
     1
176
     1
290
     1
176
     1
290
     0
176
     1
290
     0
176
     1
290
     0
176
     1
290
     0
176
     1
290
     0
176
     1
290
     0
176
     1
 90
       50
176
     1
 40
0.0
176
     1
 40
1.0
176
     1
 90
        0
176
     1
 62
   178
420
        0
176
     1
 90
       50
176
     1
 90
        3
176
     1
 62
     5
420
      255
176
     1
290
     0
176
     1
 90
       50
176
     1
 90
       50
176
     1
 90
       50
176
     1
290
     0
176
     1
 90
       50
176
     1
 62
   256
176
     0
 40
1.0
176
     0
 90
        2
176
     1
  1
strokes_ogs.tif
176
     1
290
     0
176
     1
 40
1.0
176
     1
 40
1.0
176
     1
  0
VISUALSTYLE
  5
355
102
{ACAD_REACTORS
330
340
102
}
330
340
100
AcDbVisualStyle
  2
Sketchy
 70
    24
177
     3
291
     0
 70
    58
 90
        1
176
     1
 90
        2
176
     1
 90
        2
176
     1
 90
        0
176
     1
 40
0.6
176
     1
 40
30.0
176
     1
 62
     7
420
 16777215
176
     1
 90
        2
176
     1
 90
        2
176
     1
 62
     7
176
     1
 62
     7
176
     1
 90
        1
176
     1
 90
        1
176
     1
 40
40.0
176
     1
 90
       11
176
     1
 62
     7
176
     1
 40
1.0
176
     1
 90
        1
176
     1
 90
        6
176
     1
 90
        2
176
     1
 62
     7
176
     1
 90
        6
176
     1
 90
        0
176
     1
 90
        0
176
     1
290
     0
176
     1
 90
        1
176
     1
 40
0.0
176
     1
 90
        0
176
     1
290
     0
176
     1
290
     1
176
     1
290
     1
176
     1
290
     0
176
     1
290
     0
176
     1
290
     0
176
     1
290
     0
176
     1
290
     0
176
     1
290
     0
176
     1
 90
       50
176
     1
 40
0.0
176
     1
 40
1.0
176
     1
 90
        0
176
     1
 62
   178
420
        0
176
     1
 90
       50
176
     1
 90
        3
176
     1
 62
     5
420
      255
176
     1
290
     0
176
     1
 90
       50
176
     1
 90
       50
176
     1
 90
       50
176
     1
290
     0
176
     1
 90
       50
176
     1
 62
   256
176
     0
 40
1.0
176
     0
 90
        2
176
     1
  1
strokes_ogs.tif
176
     1
290
     0
176
     1
 40
1.0
176
     1
 40
1.0
176
     1
  0
VISUALSTYLE
  5
34D
102
{ACAD_REACTORS
330
340
102
}
330
340
100
AcDbVisualStyle
  2
Thicken
 70
    13
177
     3
291
     1
 70
    58
 90
        2
176
     1
 90
        2
176
     1
 90
        0
176
     1
 90
        0
176
     1
 40
0.6
176
     1
 40
30.0
176
     1
 62
     7
420
 16777215
176
     1
 90
        1
176
     1
 90
        4
176
     1
 62
     7
176
     1
 62
   257
176
     1
 90
        1
176
     1
 90
        1
176
     1
 40
1.0
176
     1
 90
       12
176
     1
 62
     7
176
     1
 40
1.0
176
     1
 90
        1
176
     1
 90
        6
176
     1
 90
        2
176
     1
 62
     7
176
     1
 90
        5
176
     1
 90
        0
176
     1
 90
        0
176
     1
290
     0
176
     1
 90
        1
176
     1
 40
0.0
176
     1
 90
        0
176
     1
290
     0
176
     1
290
     1
176
     1
290
     1
176
     1
290
     0
176
     1
290
     0
176
     1
290
     0
176
     1
290
     0
176
     1
290
     0
176
     1
290
     0
176
     1
 90
       50
176
     1
 40
0.0
176
     1
 40
1.0
176
     1
 90
        0
176
     1
 62
   178
420
        0
176
     1
 90
       50
176
     1
 90
        3
176
     1
 62
     5
420
      255
176
     1
290
     0
176
     1
 90
       50
176
     1
 90
       50
176
     1
 90
       50
176
     1
290
     0
176
     1
 90
       50
176
     1
 62
   256
176
     0
 40
1.0
176
     0
 90
        2
176
     1
  1
strokes_ogs.tif
176
     1
290
     0
176
     1
 40
1.0
176
     1
 40
1.0
176
     1
  0
VISUALSTYLE
  5
346
102
{ACAD_REACTORS
330
340
102
}
330
340
100
AcDbVisualStyle
  2
Wireframe
 70
     5
177
     3
291
     0
 70
    58
 90
        0
176
     1
 90
        2
176
     1
 90
        0
176
     1
 90
        0
176
     1
 40
0.6
176
     1
 40
30.0
176
     1
 62
     7
420
 16777215
176
     1
 90
        1
176
     1
 90
        4
176
     1
 62
     7
176
     1
 62
   257
176
     1
 90
        1
176
     1
 90
        1
176
     1
 40
1.0
176
     1
 90
        0
176
     1
 62
   257
176
     1
 40
1.0
176
     1
 90
        1
176
     1
 90
        6
176
     1
 90
        2
176
     1
 62
     7
176
     1
 90
        3
176
     1
 90
        0
176
     1
 90
        0
176
     1
290
     0
176
     1
 90
        1
176
     1
 40
0.0
176
     1
 90
        0
176
     1
290
     0
176
     1
290
     1
176
     1
290
     1
176
     1
290
     0
176
     1
290
     0
176
     1
290
     0
176
     1
290
     0
176
     1
290
     0
176
     1
290
     0
176
     1
 90
       50
176
     1
 40
0.0
176
     1
 40
1.0
176
     1
 90
        0
176
     1
 62
   178
420
        0
176
     1
 90
       50
176
     1
 90
        3
176
     1
 62
     5
420
      255
176
     1
290
     0
176
     1
 90
       50
176
     1
 90
       50
176
     1
 90
       50
176
     1
290
     0
176
     1
 90
       50
176
     1
 62
   256
176
     0
 40
1.0
176
     0
 90
        2
176
     1
  1
strokes_ogs.tif
176
     1
290
     0
176
     1
 40
1.0
176
     1
 40
1.0
176
     1
  0
VISUALSTYLE
  5
356
102
{ACAD_REACTORS
330
340
102
}
330
340
100
AcDbVisualStyle
  2
X-Ray
 70
    25
177
     3
291
     0
 70
    58
 90
        2
176
     1
 90
        2
176
     1
 90
        1
176
     1
 90
        1
176
     1
 40
0.5
176
     1
 40
30.0
176
     1
 62
     7
420
 16777215
176
     1
 90
        1
176
     1
 90
        0
176
     1
 62
     7
176
     1
 62
   257
176
     1
 90
        1
176
     1
 90
        1
176
     1
 40
1.0
176
     1
 90
        8
176
     1
 62
     7
176
     1
 40
1.0
176
     1
 90
        1
176
     1
 90
        6
176
     1
 90
        2
176
     1
 62
     7
176
     1
 90
        3
176
     1
 90
        0
176
     1
 90
        0
176
     1
290
     0
176
     1
 90
       13
176
     1
 40
0.0
176
     1
 90
        0
176
     1
290
     0
176
     1
290
     1
176
     1
290
     1
176
     1
290
     0
176
     1
290
     0
176
     1
290
     0
176
     1
290
     0
176
     1
290
     0
176
     1
290
     0
176
     1
 90
       50
176
     1
 40
0.0
176
     1
 40
1.0
176
     1
 90
        0
176
     1
 62
   178
420
        0
176
     1
 90
       50
176
     1
 90
        3
176
     1
 62
     5
420
      255
176
     1
290
     0
176
     1
 90
       50
176
     1
 90
       50
176
     1
 90
       50
176
     1
290
     0
176
     1
 90
       50
176
     1
 62
   256
176
     0
 40
1.0
176
     0
 90
        2
176
     1
  1
strokes_ogs.tif
176
     1
290
     0
176
     1
 40
1.0
176
     1
 40
1.0
176
     1
  0
DICTIONARYVAR
  5
3C7
102
{ACAD_REACTORS
330
3C6
102
}
330
3C6
100
DictionaryVariables
280
     0
  1
1:1
  0
DICTIONARYVAR
  5
3CC
102
{ACAD_REACTORS
330
3C6
102
}
330
3C6
100
DictionaryVariables
280
     0
  1
Standard
  0
DICTIONARYVAR
  5
3CB
102
{ACAD_REACTORS
330
3C6
102
}
330
3C6
100
DictionaryVariables
280
     0
  1
Standard
  0
XRECORD
  5
386
102
{ACAD_REACTORS
330
385
102
}
330
385
100
AcDbXrecord
280
     1
290
     1
  0
XRECORD
  5
387
102
{ACAD_REACTORS
330
385
102
}
330
385
100
AcDbXrecord
280
     1
290
     1
  0
XRECORD
  5
388
102
{ACAD_REACTORS
330
385
102
}
330
385
100
AcDbXrecord
280
     1
290
     1
  0
XRECORD
  5
389
102
{ACAD_REACTORS
330
385
102
}
330
385
100
AcDbXrecord
280
     1
290
     1
  0
XRECORD
  5
38A
102
{ACAD_REACTORS
330
385
102
}
330
385
100
AcDbXrecord
280
     1
1000
auto
  0
XRECORD
  5
38B
102
{ACAD_REACTORS
330
385
102
}
330
385
100
AcDbXrecord
280
     1
1000
auto
  0
XRECORD
  5
38C
102
{ACAD_REACTORS
330
385
102
}
330
385
100
AcDbXrecord
280
     1
1000
auto
  0
XRECORD
  5
38D
102
{ACAD_REACTORS
330
385
102
}
330
385
100
AcDbXrecord
280
     1
1000
auto
  0
XRECORD
  5
38E
102
{ACAD_REACTORS
330
385
102
}
330
385
100
AcDbXrecord
280
     1
1000
auto
  0
XRECORD
  5
38F
102
{ACAD_REACTORS
330
385
102
}
330
385
100
AcDbXrecord
280
     1
1000
auto
  0
XRECORD
  5
390
102
{ACAD_REACTORS
330
385
102
}
330
385
100
AcDbXrecord
280
     1
1000
auto
  0
XRECORD
  5
391
102
{ACAD_REACTORS
330
385
102
}
330
385
100
AcDbXrecord
280
     1
1000
auto
  0
XRECORD
  5
392
102
{ACAD_REACTORS
330
385
102
}
330
385
100
AcDbXrecord
280
     1
290
     0
  0
XRECORD
  5
393
102
{ACAD_REACTORS
330
385
102
}
330
385
100
AcDbXrecord
280
     1
290
     0
  0
XRECORD
  5
394
102
{ACAD_REACTORS
330
385
102
}
330
385
100
AcDbXrecord
280
     1
290
     0
  0
XRECORD
  5
395
102
{ACAD_REACTORS
330
385
102
}
330
385
100
AcDbXrecord
280
     1
290
     0
  0
XRECORD
  5
396
102
{ACAD_REACTORS
330
385
102
}
330
385
100
AcDbXrecord
280
     1
 90
        0
  0
XRECORD
  5
397
102
{ACAD_REACTORS
330
385
102
}
330
385
100
AcDbXrecord
280
     1
 90
        0
  0
XRECORD
  5
398
102
{ACAD_REACTORS
330
385
102
}
330
385
100
AcDbXrecord
280
     1
 90
        0
  0
XRECORD
  5
399
102
{ACAD_REACTORS
330
385
102
}
330
385
100
AcDbXrecord
280
     1
 90
        0
  0
XRECORD
  5
39A
102
{ACAD_REACTORS
330
385
102
}
330
385
100
AcDbXrecord
280
     1
1000
auto
  0
XRECORD
  5
39B
102
{ACAD_REACTORS
330
385
102
}
330
385
100
AcDbXrecord
280
     1
1000
auto
  0
XRECORD
  5
39C
102
{ACAD_REACTORS
330
385
102
}
330
385
100
AcDbXrecord
280
     1
1000
auto
  0
XRECORD
  5
39D
102
{ACAD_REACTORS
330
385
102
}
330
385
100
AcDbXrecord
280
     1
1000
auto
  0
XRECORD
  5
39E
102
{ACAD_REACTORS
330
385
102
}
330
385
100
AcDbXrecord
280
     1
1000
auto
  0
XRECORD
  5
39F
102
{ACAD_REACTORS
330
385
102
}
330
385
100
AcDbXrecord
280
     1
1000
auto
  0
XRECORD
  5
3A0
102
{ACAD_REACTORS
330
385
102
}
330
385
100
AcDbXrecord
280
     1
1000
auto
  0
XRECORD
  5
3A1
102
{ACAD_REACTORS
330
385
102
}
330
385
100
AcDbXrecord
280
     1
1000
auto
  0
XRECORD
  5
3A2
102
{ACAD_REACTORS
330
385
102
}
330
385
100
AcDbXrecord
280
     1
 90
        1
  0
XRECORD
  5
3A3
102
{ACAD_REACTORS
330
385
102
}
330
385
100
AcDbXrecord
280
     1
 40
10.0
  0
XRECORD
  5
3A4
102
{ACAD_REACTORS
330
385
102
}
330
385
100
AcDbXrecord
280
     1
 40
10.0
  0
XRECORD
  5
3A5
102
{ACAD_REACTORS
330
385
102
}
330
385
100
AcDbXrecord
280
     1
 40
10.0
  0
XRECORD
  5
3A6
102
{ACAD_REACTORS
330
385
102
}
330
385
100
AcDbXrecord
280
     1
 40
10.0
  0
XRECORD
  5
3A7
102
{ACAD_REACTORS
330
385
102
}
330
385
100
AcDbXrecord
280
     1
290
     0
  0
XRECORD
  5
3A8
102
{ACAD_REACTORS
330
385
102
}
330
385
100
AcDbXrecord
280
     1
 90
        1
  0
XRECORD
  5
3A9
102
{ACAD_REACTORS
330
385
102
}
330
385
100
AcDbXrecord
280
     1
 40
0.0
  0
XRECORD
  5
3AA
102
{ACAD_REACTORS
330
385
102
}
330
385
100
AcDbXrecord
280
     1
 40
0.0
  0
XRECORD
  5
3AB
102
{ACAD_REACTORS
330
385
102
}
330
385
100
AcDbXrecord
280
     1
1000
Portrait
  0
XRECORD
  5
3AC
102
{ACAD_REACTORS
330
385
102
}
330
385
100
AcDbXrecord
280
     1
 40
297.0
  0
XRECORD
  5
3AD
102
{ACAD_REACTORS
330
385
102
}
330
385
100
AcDbXrecord
280
     1
 40
210.0
  0
XRECORD
  5
3AE
102
{ACAD_REACTORS
330
385
102
}
330
385
100
AcDbXrecord
280
     1
1000
1:1
  0
XRECORD
  5
3AF
102
{ACAD_REACTORS
330
385
102
}
330
385
100
AcDbXrecord
280
     1
290
     1
  0
XRECORD
  5
3B0
102
{ACAD_REACTORS
330
385
102
}
330
385
100
AcDbXrecord
280
     1
 90
        4
  0
DICTIONARY
  5
3C8
330
380
100
AcDbDictionary
280
     1
281
     1
  3
ACAD_ROUNDTRIP_2008_TABLESTYLE_CELLSTYLEMAP
360
3C9
  0
CELLSTYLEMAP
  5
3C9
102
{ACAD_REACTORS
330
3C8
102
}
330
3C8
100
AcDbCellStyleMap
 90
        3
300
CELLSTYLE
  1
TABLEFORMAT_BEGIN
 90
        5
170
     1
 91
        0
 92
    32768
 62
   257
 93
        1
300
CONTENTFORMAT
  1
CONTENTFORMAT_BEGIN
 90
        0
 91
        0
 92
        4
 93
        0
300

 40
0.0
140
1.0
 94
        5
 62
     0
340
328
144
0.25
309
CONTENTFORMAT_END
171
     1
301
MARGIN
  1
CELLMARGIN_BEGIN
 40
0.06
 40
0.06
 40
0.06
 40
0.06
 40
0.06
 40
0.06
309
CELLMARGIN_END
 94
        6
 95
        1
302
GRIDFORMAT
  1
GRIDFORMAT_BEGIN
 90
        0
 91
        1
 62
     0
 92
       -2
340
32A
 93
        0
 40
0.045
309
GRIDFORMAT_END
 95
        2
302
GRIDFORMAT
  1
GRIDFORMAT_BEGIN
 90
        0
 91
        1
 62
     0
 92
       -2
340
32A
 93
        0
 40
0.045
309
GRIDFORMAT_END
 95
        4
302
GRIDFORMAT
  1
GRIDFORMAT_BEGIN
 90
        0
 91
        1
 62
     0
 92
       -2
340
32A
 93
        0
 40
0.045
309
GRIDFORMAT_END
 95
        8
302
GRIDFORMAT
  1
GRIDFORMAT_BEGIN
 90
        0
 91
        1
 62
     0
 92
       -2
340
32A
 93
        0
 40
0.045
309
GRIDFORMAT_END
 95
       16
302
GRIDFORMAT
  1
GRIDFORMAT_BEGIN
 90
        0
 91
        1
 62
     0
 92
       -2
340
32A
 93
        0
 40
0.045
309
GRIDFORMAT_END
 95
       32
302
GRIDFORMAT
  1
GRIDFORMAT_BEGIN
 90
        0
 91
        1
 62
     0
 92
       -2
340
32A
 93
        0
 40
0.045
309
GRIDFORMAT_END
309
TABLEFORMAT_END
  1
CELLSTYLE_BEGIN
 90
        1
 91
        1
300
_TITLE
309
CELLSTYLE_END
300
CELLSTYLE
  1
TABLEFORMAT_BEGIN
 90
        5
170
     1
 91
        0
 92
        0
 62
   257
 93
        1
300
CONTENTFORMAT
  1
CONTENTFORMAT_BEGIN
 90
        0
 91
        0
 92
        4
 93
        0
300

 40
0.0
140
1.0
 94
        5
 62
     0
340
328
144
0.18
309
CONTENTFORMAT_END
171
     1
301
MARGIN
  1
CELLMARGIN_BEGIN
 40
0.06
 40
0.06
 40
0.06
 40
0.06
 40
0.06
 40
0.06
309
CELLMARGIN_END
 94
        6
 95
        1
302
GRIDFORMAT
  1
GRIDFORMAT_BEGIN
 90
        0
 91
        1
 62
     0
 92
       -2
340
32A
 93
        0
 40
0.045
309
GRIDFORMAT_END
 95
        2
302
GRIDFORMAT
  1
GRIDFORMAT_BEGIN
 90
        0
 91
        1
 62
     0
 92
       -2
340
32A
 93
        0
 40
0.045
309
GRIDFORMAT_END
 95
        4
302
GRIDFORMAT
  1
GRIDFORMAT_BEGIN
 90
        0
 91
        1
 62
     0
 92
       -2
340
32A
 93
        0
 40
0.045
309
GRIDFORMAT_END
 95
        8
302
GRIDFORMAT
  1
GRIDFORMAT_BEGIN
 90
        0
 91
        1
 62
     0
 92
       -2
340
32A
 93
        0
 40
0.045
309
GRIDFORMAT_END
 95
       16
302
GRIDFORMAT
  1
GRIDFORMAT_BEGIN
 90
        0
 91
        1
 62
     0
 92
       -2
340
32A
 93
        0
 40
0.045
309
GRIDFORMAT_END
 95
       32
302
GRIDFORMAT
  1
GRIDFORMAT_BEGIN
 90
        0
 91
        1
 62
     0
 92
       -2
340
32A
 93
        0
 40
0.045
309
GRIDFORMAT_END
309
TABLEFORMAT_END
  1
CELLSTYLE_BEGIN
 90
        2
 91
        1
300
_HEADER
309
CELLSTYLE_END
300
CELLSTYLE
  1
TABLEFORMAT_BEGIN
 90
        5
170
     1
 91
        0
 92
        0
 62
   257
 93
        1
300
CONTENTFORMAT
  1
CONTENTFORMAT_BEGIN
 90
        0
 91
        0
 92
        4
 93
        0
300

 40
0.0
140
1.0
 94
        2
 62
     0
340
328
144
0.18
309
CONTENTFORMAT_END
171
     1
301
MARGIN
  1
CELLMARGIN_BEGIN
 40
0.06
 40
0.06
 40
0.06
 40
0.06
 40
0.06
 40
0.06
309
CELLMARGIN_END
 94
        6
 95
        1
302
GRIDFORMAT
  1
GRIDFORMAT_BEGIN
 90
        0
 91
        1
 62
     0
 92
       -2
340
32A
 93
        0
 40
0.045
309
GRIDFORMAT_END
 95
        2
302
GRIDFORMAT
  1
GRIDFORMAT_BEGIN
 90
        0
 91
        1
 62
     0
 92
       -2
340
32A
 93
        0
 40
0.045
309
GRIDFORMAT_END
 95
        4
302
GRIDFORMAT
  1
GRIDFORMAT_BEGIN
 90
        0
 91
        1
 62
     0
 92
       -2
340
32A
 93
        0
 40
0.045
309
GRIDFORMAT_END
 95
        8
302
GRIDFORMAT
  1
GRIDFORMAT_BEGIN
 90
        0
 91
        1
 62
     0
 92
       -2
340
32A
 93
        0
 40
0.045
309
GRIDFORMAT_END
 95
       16
302
GRIDFORMAT
  1
GRIDFORMAT_BEGIN
 90
        0
 91
        1
 62
     0
 92
       -2
340
32A
 93
        0
 40
0.045
309
GRIDFORMAT_END
 95
       32
302
GRIDFORMAT
  1
GRIDFORMAT_BEGIN
 90
        0
 91
        1
 62
     0
 92
       -2
340
32A
 93
        0
 40
0.045
309
GRIDFORMAT_END
309
TABLEFORMAT_END
  1
CELLSTYLE_BEGIN
 90
        3
 91
        2
300
_DATA
309
CELLSTYLE_END
  0
ENDSEC
  0
EOF
